<svg version="1.1" viewBox="0.0 0.0 500.0 200.0" fill="none" stroke="none" stroke-linecap="square" stroke-miterlimit="10" xmlns:xlink="http://www.w3.org/1999/xlink" xmlns="http://www.w3.org/2000/svg"><clipPath id="p.0"><path d="m0 0l500.0 0l0 200.0l-500.0 0l0 -200.0z" clip-rule="nonzero"/></clipPath><g clip-path="url(#p.0)"><path fill="#000000" fill-opacity="0.0" d="m0 0l500.0 0l0 200.0l-500.0 0z" fill-rule="evenodd"/><path fill="#d9ead3" d="m10.668026 17.036486l486.4567 0l0 51.84252l-486.4567 0z" fill-rule="evenodd"/><path stroke="#595959" stroke-width="1.0" stroke-linejoin="round" stroke-linecap="butt" d="m10.668026 17.036486l486.4567 0l0 51.84252l-486.4567 0z" fill-rule="evenodd"/><path fill="#c9daf8" d="m389.76865 139.02928l107.33859 0l0 51.842514l-107.33859 0z" fill-rule="evenodd"/><path stroke="#595959" stroke-width="1.0" stroke-linejoin="round" stroke-linecap="butt" d="m389.76865 139.02928l107.33859 0l0 51.842514l-107.33859 0z" fill-rule="evenodd"/><path fill="#c9daf8" d="m263.39703 139.02928l107.33859 0l0 51.842514l-107.33859 0z" fill-rule="evenodd"/><path stroke="#595959" stroke-width="1.0" stroke-linejoin="round" stroke-linecap="butt" d="m263.39703 139.02928l107.33859 0l0 51.842514l-107.33859 0z" fill-rule="evenodd"/><path fill="#c9daf8" d="m137.02798 139.02928l107.33858 0l0 51.842514l-107.33858 0z" fill-rule="evenodd"/><path stroke="#595959" stroke-width="1.0" stroke-linejoin="round" stroke-linecap="butt" d="m137.02798 139.02928l107.33858 0l0 51.842514l-107.33858 0z" fill-rule="evenodd"/><path fill="#c9daf8" d="m10.655095 139.02928l107.33858 0l0 51.842514l-107.33858 0z" fill-rule="evenodd"/><path stroke="#595959" stroke-width="1.0" stroke-linejoin="round" stroke-linecap="butt" d="m10.655095 139.02928l107.33858 0l0 51.842514l-107.33858 0z" fill-rule="evenodd"/><path fill="#d9ead3" d="m2.8895044 9.128606l486.4567 0l0 51.84252l-486.4567 0z" fill-rule="evenodd"/><path stroke="#595959" stroke-width="1.0" stroke-linejoin="round" stroke-linecap="butt" d="m2.8895044 9.128606l486.4567 0l0 51.84252l-486.4567 0z" fill-rule="evenodd"/><path fill="#000000" d="m71.59295 45.303616q0 0.125 -0.046875 0.21875q-0.046875 0.09375 -0.203125 0.15625q-0.140625 0.046875 -0.390625 0.078125q-0.234375 0.03125 -0.609375 0.03125q-0.515625 0 -0.828125 -0.046875q-0.3125 -0.03125 -0.46875 -0.140625q-0.15625 -0.125 -0.25 -0.265625l-6.828125 -9.265625l0 9.265625q0 0.109375 -0.0625 0.203125q-0.046875 0.09375 -0.1875 0.140625q-0.140625 0.046875 -0.390625 0.078125q-0.234375 0.03125 -0.59375 0.03125q-0.34375 0 -0.59375 -0.03125q-0.234375 -0.03125 -0.375 -0.078125q-0.140625 -0.046875 -0.203125 -0.140625q-0.046875 -0.09375 -0.046875 -0.203125l0 -17.781248q0 -0.109375 0.046875 -0.1875q0.0625 -0.09375 0.203125 -0.140625q0.140625 -0.0625 0.375 -0.09375q0.25 -0.03125 0.59375 -0.03125q0.359375 0 0.59375 0.03125q0.25 0.03125 0.390625 0.09375q0.140625 0.046875 0.1875 0.140625q0.0625 0.078125 0.0625 0.1875l0 8.234373l6.5625 -8.234373q0.09375 -0.125 0.203125 -0.203125q0.109375 -0.09375 0.265625 -0.140625q0.171875 -0.0625 0.40625 -0.078125q0.25 -0.03125 0.609375 -0.03125q0.375 0 0.609375 0.03125q0.234375 0.03125 0.359375 0.09375q0.140625 0.046875 0.1875 0.140625q0.046875 0.078125 0.046875 0.1875q0 0.1875 -0.09375 0.375q-0.09375 0.1875 -0.34375 0.515625l-6.140625 7.343748l6.609375 8.796875q0.25 0.359375 0.296875 0.5q0.046875 0.140625 0.046875 0.21875zm14.331924 -6.546875q0 1.578125 -0.421875 2.90625q-0.40625 1.328125 -1.234375 2.296875q-0.8125 0.953125 -2.0625 1.484375q-1.234375 0.53125 -2.859375 0.53125q-1.59375 0 -2.78125 -0.46875q-1.171875 -0.46875 -1.96875 -1.375q-0.78125 -0.90625 -1.171875 -2.1875q-0.390625 -1.296875 -0.390625 -2.921875q0 -1.578125 0.40625 -2.890625q0.421875 -1.328125 1.234375 -2.28125q0.828125 -0.96875 2.0625 -1.5q1.234375 -0.5312481 2.875 -0.5312481q1.59375 0 2.765625 0.4687481q1.1875 0.46875 1.96875 1.375q0.796875 0.90625 1.1875 2.203125q0.390625 1.28125 0.390625 2.890625zm-2.484375 0.171875q0 -1.046875 -0.203125 -1.96875q-0.1875 -0.9375 -0.640625 -1.640625q-0.4375 -0.703125 -1.203125 -1.109375q-0.75 -0.421875 -1.875 -0.421875q-1.046875 0 -1.796875 0.375q-0.75 0.375 -1.25 1.0625q-0.484375 0.671875 -0.71875 1.609375q-0.234375 0.921875 -0.234375 2.03125q0 1.0625 0.1875 2.0q0.203125 0.921875 0.65625 1.625q0.453125 0.6875 1.203125 1.09375q0.765625 0.40625 1.890625 0.40625q1.03125 0 1.78125 -0.375q0.765625 -0.375 1.25 -1.046875q0.5 -0.671875 0.71875 -1.59375q0.234375 -0.9375 0.234375 -2.046875zm8.325378 6.421875q0 0.109375 -0.0625 0.203125q-0.046875 0.078125 -0.171875 0.140625q-0.125 0.046875 -0.359375 0.0625q-0.234375 0.03125 -0.59375 0.03125q-0.34375 0 -0.578125 -0.03125q-0.21875 -0.015625 -0.359375 -0.0625q-0.125 -0.0625 -0.1875 -0.140625q-0.046875 -0.09375 -0.046875 -0.203125l0 -12.890625q0 -0.09375 0.046875 -0.171875q0.0625 -0.09375 0.1875 -0.15625q0.140625 -0.0625 0.359375 -0.078125q0.234375 -0.03125 0.578125 -0.03125q0.359375 0 0.59375 0.03125q0.234375 0.015625 0.359375 0.078125q0.125 0.0625 0.171875 0.15625q0.0625 0.078125 0.0625 0.171875l0 12.890625zm0.28125 -17.234373q0 0.828125 -0.3125 1.125q-0.3125 0.296875 -1.171875 0.296875q-0.828125 0 -1.140625 -0.28125q-0.296875 -0.296875 -0.296875 -1.125q0 -0.828125 0.3125 -1.125q0.3125 -0.296875 1.15625 -0.296875q0.828125 0 1.140625 0.296875q0.3125 0.28125 0.3125 1.109375zm22.142166 9.343748q0 0.28125 -0.046875 0.46875q-0.046875 0.1875 -0.125 0.328125q-0.0625 0.125 -0.171875 0.1875q-0.09375 0.046875 -0.203125 0.046875l-4.703125 0l0 5.21875q0 0.109375 -0.0625 0.1875q-0.046875 0.078125 -0.171875 0.140625q-0.125 0.046875 -0.328125 0.09375q-0.1875 0.03125 -0.5 0.03125q-0.28125 0 -0.484375 -0.03125q-0.203125 -0.046875 -0.328125 -0.09375q-0.125 -0.0625 -0.1875 -0.140625q-0.046875 -0.078125 -0.046875 -0.1875l0 -5.21875l-4.703125 0q-0.125 0 -0.21875 -0.046875q-0.09375 -0.0625 -0.171875 -0.1875q-0.0625 -0.140625 -0.109375 -0.328125q-0.046875 -0.1875 -0.046875 -0.46875q0 -0.25 0.046875 -0.4375q0.046875 -0.203125 0.109375 -0.328125q0.078125 -0.140625 0.171875 -0.1875q0.09375 -0.0625 0.203125 -0.0625l4.71875 0l0 -5.218748q0 -0.109375 0.046875 -0.203125q0.0625 -0.09375 0.1875 -0.15625q0.125 -0.0625 0.328125 -0.09375q0.203125 -0.046875 0.484375 -0.046875q0.3125 0 0.5 0.046875q0.203125 0.03125 0.328125 0.09375q0.125 0.0625 0.171875 0.15625q0.0625 0.09375 0.0625 0.203125l0 5.218748l4.71875 0q0.109375 0 0.203125 0.0625q0.09375 0.046875 0.171875 0.1875q0.078125 0.125 0.109375 0.328125q0.046875 0.1875 0.046875 0.4375zm21.471504 -4.859375q0 1.390625 -0.453125 2.515625q-0.453125 1.109375 -1.3125 1.90625q-0.84375 0.78125 -2.09375 1.21875q-1.234375 0.421875 -2.953125 0.421875l-2.1093826 0l0 6.671875q0 0.125 -0.0625 0.21875q-0.0625 0.078125 -0.203125 0.125q-0.125 0.046875 -0.375 0.078125q-0.234375 0.03125 -0.59375 0.03125q-0.34375 0 -0.59375 -0.03125q-0.234375 -0.03125 -0.375 -0.078125q-0.140625 -0.046875 -0.203125 -0.125q-0.046875 -0.09375 -0.046875 -0.21875l0 -17.093748q0 -0.578125 0.296875 -0.8125q0.296875 -0.25 0.671875 -0.25l3.9687576 0q0.59375 0 1.140625 0.046875q0.5625 0.046875 1.3125 0.21875q0.75 0.171875 1.53125 0.625q0.78125 0.4375 1.328125 1.109375q0.546875 0.65625 0.828125 1.515625q0.296875 0.859375 0.296875 1.9062481zm-2.59375 0.203125q0 -1.1249981 -0.421875 -1.8749981q-0.421875 -0.765625 -1.046875 -1.140625q-0.609375 -0.375 -1.28125 -0.46875q-0.671875 -0.109375 -1.296875 -0.109375l-2.2812576 0l0 7.437498l2.2187576 0q1.125 0 1.859375 -0.28125q0.734375 -0.296875 1.234375 -0.796875q0.5 -0.515625 0.75 -1.21875q0.265625 -0.71875 0.265625 -1.546875zm17.485596 5.953125q0 1.578125 -0.421875 2.90625q-0.40625 1.328125 -1.234375 2.296875q-0.8125 0.953125 -2.0625 1.484375q-1.234375 0.53125 -2.859375 0.53125q-1.59375 0 -2.78125 -0.46875q-1.171875 -0.46875 -1.96875 -1.375q-0.78125 -0.90625 -1.171875 -2.1875q-0.390625 -1.296875 -0.390625 -2.921875q0 -1.578125 0.40625 -2.890625q0.421875 -1.328125 1.234375 -2.28125q0.828125 -0.96875 2.0625 -1.5q1.234375 -0.5312481 2.875 -0.5312481q1.59375 0 2.765625 0.4687481q1.1875 0.46875 1.96875 1.375q0.796875 0.90625 1.1875 2.203125q0.390625 1.28125 0.390625 2.890625zm-2.484375 0.171875q0 -1.046875 -0.203125 -1.96875q-0.1875 -0.9375 -0.640625 -1.640625q-0.4375 -0.703125 -1.203125 -1.109375q-0.75 -0.421875 -1.875 -0.421875q-1.046875 0 -1.796875 0.375q-0.75 0.375 -1.25 1.0625q-0.484375 0.671875 -0.71875 1.609375q-0.234375 0.921875 -0.234375 2.03125q0 1.0625 0.1875 2.0q0.203125 0.921875 0.65625 1.625q0.453125 0.6875 1.203125 1.09375q0.765625 0.40625 1.890625 0.40625q1.03125 0 1.78125 -0.375q0.765625 -0.375 1.25 -1.046875q0.5 -0.671875 0.71875 -1.59375q0.234375 -0.9375 0.234375 -2.046875zm14.059753 2.921875q0 0.984375 -0.375 1.765625q-0.359375 0.765625 -1.03125 1.296875q-0.671875 0.53125 -1.609375 0.796875q-0.921875 0.265625 -2.03125 0.265625q-0.6875 0 -1.3125 -0.109375q-0.625 -0.09375 -1.125 -0.25q-0.484375 -0.171875 -0.828125 -0.34375q-0.34375 -0.1875 -0.515625 -0.328125q-0.15625 -0.15625 -0.234375 -0.40625q-0.0625 -0.265625 -0.0625 -0.703125q0 -0.265625 0.03125 -0.453125q0.03125 -0.1875 0.0625 -0.296875q0.046875 -0.125 0.125 -0.171875q0.078125 -0.046875 0.1875 -0.046875q0.15625 0 0.453125 0.1875q0.3125 0.1875 0.765625 0.421875q0.453125 0.234375 1.0625 0.421875q0.625 0.1875 1.421875 0.1875q0.609375 0 1.09375 -0.125q0.484375 -0.125 0.84375 -0.375q0.359375 -0.25 0.546875 -0.640625q0.203125 -0.390625 0.203125 -0.921875q0 -0.53125 -0.28125 -0.90625q-0.28125 -0.375 -0.75 -0.65625q-0.453125 -0.296875 -1.03125 -0.515625q-0.5625 -0.21875 -1.171875 -0.453125q-0.609375 -0.25 -1.1875 -0.5625q-0.578125 -0.3125 -1.046875 -0.75q-0.453125 -0.4375 -0.734375 -1.046875q-0.28125 -0.625 -0.28125 -1.484375q0 -0.765625 0.296875 -1.453125q0.296875 -0.703125 0.875 -1.21875q0.59375 -0.53125 1.46875 -0.84375q0.890625 -0.3124981 2.0625 -0.3124981q0.515625 0 1.03125 0.09375q0.515625 0.078125 0.921875 0.2031231q0.421875 0.125 0.71875 0.28125q0.296875 0.15625 0.4375 0.265625q0.15625 0.109375 0.203125 0.203125q0.046875 0.078125 0.0625 0.1875q0.03125 0.109375 0.046875 0.265625q0.03125 0.15625 0.03125 0.390625q0 0.25 -0.03125 0.421875q-0.015625 0.171875 -0.0625 0.296875q-0.046875 0.109375 -0.125 0.171875q-0.0625 0.046875 -0.15625 0.046875q-0.125 0 -0.375 -0.15625q-0.234375 -0.171875 -0.625 -0.34375q-0.390625 -0.1875 -0.921875 -0.34375q-0.515625 -0.15625 -1.1875 -0.15625q-0.59375 0 -1.0625 0.140625q-0.453125 0.140625 -0.75 0.390625q-0.296875 0.25 -0.453125 0.59375q-0.140625 0.34375 -0.140625 0.734375q0 0.5625 0.28125 0.953125q0.296875 0.375 0.75 0.65625q0.46875 0.28125 1.046875 0.515625q0.59375 0.234375 1.203125 0.484375q0.609375 0.234375 1.203125 0.53125q0.59375 0.296875 1.046875 0.734375q0.453125 0.421875 0.734375 1.03125q0.28125 0.59375 0.28125 1.4375zm5.736252 3.5q0 0.109375 -0.0625 0.203125q-0.046875 0.078125 -0.171875 0.140625q-0.125 0.046875 -0.359375 0.0625q-0.234375 0.03125 -0.59375 0.03125q-0.34375 0 -0.578125 -0.03125q-0.21875 -0.015625 -0.359375 -0.0625q-0.125 -0.0625 -0.1875 -0.140625q-0.046875 -0.09375 -0.046875 -0.203125l0 -12.890625q0 -0.09375 0.046875 -0.171875q0.0625 -0.09375 0.1875 -0.15625q0.140625 -0.0625 0.359375 -0.078125q0.234375 -0.03125 0.578125 -0.03125q0.359375 0 0.59375 0.03125q0.234375 0.015625 0.359375 0.078125q0.125 0.0625 0.171875 0.15625q0.0625 0.078125 0.0625 0.171875l0 12.890625zm0.28125 -17.234373q0 0.828125 -0.3125 1.125q-0.3125 0.296875 -1.171875 0.296875q-0.828125 0 -1.140625 -0.28125q-0.296875 -0.296875 -0.296875 -1.125q0 -0.828125 0.3125 -1.125q0.3125 -0.296875 1.15625 -0.296875q0.828125 0 1.140625 0.296875q0.3125 0.28125 0.3125 1.109375zm10.793076 16.296873q0 0.40625 -0.0625 0.65625q-0.046875 0.234375 -0.171875 0.359375q-0.109375 0.109375 -0.34375 0.21875q-0.21875 0.09375 -0.515625 0.15625q-0.296875 0.0625 -0.625 0.109375q-0.328125 0.046875 -0.65625 0.046875q-1.0 0 -1.71875 -0.265625q-0.71875 -0.265625 -1.171875 -0.796875q-0.453125 -0.546875 -0.671875 -1.359375q-0.203125 -0.828125 -0.203125 -1.953125l0 -7.53125l-1.8125 0q-0.203125 0 -0.34375 -0.21875q-0.125 -0.234375 -0.125 -0.75q0 -0.28125 0.03125 -0.46875q0.046875 -0.1875 0.09375 -0.296875q0.0625 -0.125 0.15625 -0.171875q0.09375 -0.0625 0.203125 -0.0625l1.796875 0l0 -3.062498q0 -0.09375 0.046875 -0.171875q0.046875 -0.09375 0.1875 -0.15625q0.140625 -0.0625 0.359375 -0.09375q0.234375 -0.03125 0.578125 -0.03125q0.359375 0 0.578125 0.03125q0.234375 0.03125 0.359375 0.09375q0.140625 0.0625 0.1875 0.15625q0.0625 0.078125 0.0625 0.171875l0 3.062498l3.3125 0q0.109375 0 0.1875 0.0625q0.09375 0.046875 0.15625 0.171875q0.0625 0.109375 0.09375 0.296875q0.03125 0.1875 0.03125 0.46875q0 0.515625 -0.125 0.75q-0.125 0.21875 -0.34375 0.21875l-3.3125 0l0 7.1875q0 1.328125 0.390625 2.015625q0.40625 0.671875 1.421875 0.671875q0.328125 0 0.578125 -0.0625q0.265625 -0.0625 0.453125 -0.125q0.203125 -0.078125 0.34375 -0.140625q0.15625 -0.0625 0.265625 -0.0625q0.078125 0 0.140625 0.03125q0.0625 0.03125 0.09375 0.140625q0.03125 0.09375 0.0625 0.265625q0.03125 0.171875 0.03125 0.4375zm5.4800262 0.9375q0 0.109375 -0.0625 0.203125q-0.046875 0.078125 -0.171875 0.140625q-0.125 0.046875 -0.359375 0.0625q-0.234375 0.03125 -0.59375 0.03125q-0.34375 0 -0.578125 -0.03125q-0.21875 -0.015625 -0.359375 -0.0625q-0.125 -0.0625 -0.1875 -0.140625q-0.046875 -0.09375 -0.046875 -0.203125l0 -12.890625q0 -0.09375 0.046875 -0.171875q0.0625 -0.09375 0.1875 -0.15625q0.140625 -0.0625 0.359375 -0.078125q0.234375 -0.03125 0.578125 -0.03125q0.359375 0 0.59375 0.03125q0.234375 0.015625 0.359375 0.078125q0.125 0.0625 0.171875 0.15625q0.0625 0.078125 0.0625 0.171875l0 12.890625zm0.28125 -17.234373q0 0.828125 -0.3125 1.125q-0.3125 0.296875 -1.171875 0.296875q-0.828125 0 -1.140625 -0.28125q-0.296875 -0.296875 -0.296875 -1.125q0 -0.828125 0.3125 -1.125q0.3125 -0.296875 1.15625 -0.296875q0.828125 0 1.140625 0.296875q0.3125 0.28125 0.3125 1.109375zm16.074326 10.640623q0 1.578125 -0.421875 2.90625q-0.40625 1.328125 -1.234375 2.296875q-0.8125 0.953125 -2.0625 1.484375q-1.234375 0.53125 -2.859375 0.53125q-1.59375 0 -2.78125 -0.46875q-1.171875 -0.46875 -1.96875 -1.375q-0.78125 -0.90625 -1.171875 -2.1875q-0.390625 -1.296875 -0.390625 -2.921875q0 -1.578125 0.40625 -2.890625q0.421875 -1.328125 1.234375 -2.28125q0.828125 -0.96875 2.0625 -1.5q1.234375 -0.5312481 2.875 -0.5312481q1.59375 0 2.765625 0.4687481q1.1875 0.46875 1.96875 1.375q0.796875 0.90625 1.1875 2.203125q0.390625 1.28125 0.390625 2.890625zm-2.484375 0.171875q0 -1.046875 -0.203125 -1.96875q-0.1875 -0.9375 -0.640625 -1.640625q-0.4375 -0.703125 -1.203125 -1.109375q-0.75 -0.421875 -1.875 -0.421875q-1.046875 0 -1.796875 0.375q-0.75 0.375 -1.25 1.0625q-0.484375 0.671875 -0.71875 1.609375q-0.234375 0.921875 -0.234375 2.03125q0 1.0625 0.1875 2.0q0.203125 0.921875 0.65625 1.625q0.453125 0.6875 1.203125 1.09375q0.765625 0.40625 1.890625 0.40625q1.03125 0 1.78125 -0.375q0.765625 -0.375 1.25 -1.046875q0.5 -0.671875 0.71875 -1.59375q0.234375 -0.9375 0.234375 -2.046875zm17.075378 6.421875q0 0.109375 -0.0625 0.203125q-0.0625 0.078125 -0.1875 0.140625q-0.125 0.046875 -0.359375 0.0625q-0.234375 0.03125 -0.578125 0.03125q-0.359375 0 -0.59375 -0.03125q-0.21875 -0.015625 -0.34375 -0.0625q-0.125 -0.0625 -0.1875 -0.140625q-0.0625 -0.09375 -0.0625 -0.203125l0 -7.546875q0 -1.09375 -0.171875 -1.765625q-0.171875 -0.6875 -0.5 -1.171875q-0.328125 -0.484375 -0.859375 -0.734375q-0.515625 -0.265625 -1.203125 -0.265625q-0.890625 0 -1.78125 0.640625q-0.875 0.625 -1.859375 1.84375l0 9.0q0 0.109375 -0.0625 0.203125q-0.046875 0.078125 -0.171875 0.140625q-0.125 0.046875 -0.359375 0.0625q-0.234375 0.03125 -0.59375 0.03125q-0.34375 0 -0.578125 -0.03125q-0.21875 -0.015625 -0.359375 -0.0625q-0.125 -0.0625 -0.1875 -0.140625q-0.046875 -0.09375 -0.046875 -0.203125l0 -12.890625q0 -0.109375 0.046875 -0.1875q0.046875 -0.078125 0.171875 -0.140625q0.125 -0.0625 0.328125 -0.078125q0.203125 -0.03125 0.53125 -0.03125q0.3125 0 0.515625 0.03125q0.21875 0.015625 0.328125 0.078125q0.109375 0.0625 0.15625 0.140625q0.0625 0.078125 0.0625 0.1875l0 1.703125q1.078125 -1.21875 2.15625 -1.78125q1.09375 -0.5624981 2.1875 -0.5624981q1.296875 0 2.171875 0.4374981q0.890625 0.4375 1.421875 1.171875q0.546875 0.71875 0.78125 1.703125q0.25 0.984375 0.25 2.359375l0 7.859375zm22.351562 -7.890625q0 0.28125 -0.046875 0.46875q-0.046875 0.1875 -0.125 0.328125q-0.0625 0.125 -0.171875 0.1875q-0.09375 0.046875 -0.203125 0.046875l-4.703125 0l0 5.21875q0 0.109375 -0.0625 0.1875q-0.046875 0.078125 -0.171875 0.140625q-0.125 0.046875 -0.328125 0.09375q-0.1875 0.03125 -0.5 0.03125q-0.28125 0 -0.484375 -0.03125q-0.203125 -0.046875 -0.328125 -0.09375q-0.125 -0.0625 -0.1875 -0.140625q-0.046875 -0.078125 -0.046875 -0.1875l0 -5.21875l-4.703125 0q-0.125 0 -0.21875 -0.046875q-0.09375 -0.0625 -0.171875 -0.1875q-0.0625 -0.140625 -0.109375 -0.328125q-0.046875 -0.1875 -0.046875 -0.46875q0 -0.25 0.046875 -0.4375q0.046875 -0.203125 0.109375 -0.328125q0.078125 -0.140625 0.171875 -0.1875q0.09375 -0.0625 0.203125 -0.0625l4.71875 0l0 -5.218748q0 -0.109375 0.046875 -0.203125q0.0625 -0.09375 0.1875 -0.15625q0.125 -0.0625 0.328125 -0.09375q0.203125 -0.046875 0.484375 -0.046875q0.3125 0 0.5 0.046875q0.203125 0.03125 0.328125 0.09375q0.125 0.0625 0.171875 0.15625q0.0625 0.09375 0.0625 0.203125l0 5.218748l4.71875 0q0.109375 0 0.203125 0.0625q0.09375 0.046875 0.171875 0.1875q0.078125 0.125 0.109375 0.328125q0.046875 0.1875 0.046875 0.4375zm30.237122 7.875q0 0.125 -0.0625 0.21875q-0.046875 0.078125 -0.203125 0.125q-0.140625 0.046875 -0.359375 0.078125q-0.21875 0.03125 -0.578125 0.03125q-0.328125 0 -0.5625 -0.03125q-0.234375 -0.03125 -0.375 -0.078125q-0.140625 -0.046875 -0.203125 -0.125q-0.046875 -0.09375 -0.046875 -0.21875l0 -16.140623l-0.03125 0l-6.59375 16.218748q-0.046875 0.09375 -0.125 0.171875q-0.078125 0.0625 -0.234375 0.125q-0.140625 0.046875 -0.359375 0.0625q-0.203125 0.015625 -0.484375 0.015625q-0.296875 0 -0.515625 -0.03125q-0.21875 -0.015625 -0.359375 -0.0625q-0.140625 -0.0625 -0.21875 -0.125q-0.078125 -0.078125 -0.109375 -0.15625l-6.3125 -16.218748l-0.015625 0l0 16.140623q0 0.125 -0.0625 0.21875q-0.0625 0.078125 -0.203125 0.125q-0.140625 0.046875 -0.375 0.078125q-0.21875 0.03125 -0.578125 0.03125q-0.34375 0 -0.578125 -0.03125q-0.234375 -0.03125 -0.375 -0.078125q-0.125 -0.046875 -0.171875 -0.125q-0.046875 -0.09375 -0.046875 -0.21875l0 -17.031248q0 -0.609375 0.3125 -0.859375q0.3125 -0.265625 0.703125 -0.265625l1.484375 0q0.453125 0 0.796875 0.09375q0.34375 0.078125 0.59375 0.265625q0.265625 0.1875 0.4375 0.484375q0.171875 0.28125 0.3125 0.65625l5.359375 13.421873l0.078125 0l5.578125 -13.374998q0.15625 -0.421875 0.34375 -0.71875q0.1875 -0.3125 0.40625 -0.484375q0.234375 -0.1875 0.5 -0.265625q0.265625 -0.078125 0.625 -0.078125l1.5625 0q0.21875 0 0.40625 0.0625q0.203125 0.0625 0.328125 0.203125q0.140625 0.140625 0.21875 0.34375q0.09375 0.203125 0.09375 0.515625l0 17.031248zm16.637451 -6.578125q0 1.578125 -0.421875 2.90625q-0.40625 1.328125 -1.234375 2.296875q-0.8125 0.953125 -2.0625 1.484375q-1.234375 0.53125 -2.859375 0.53125q-1.59375 0 -2.78125 -0.46875q-1.171875 -0.46875 -1.96875 -1.375q-0.78125 -0.90625 -1.171875 -2.1875q-0.390625 -1.296875 -0.390625 -2.921875q0 -1.578125 0.40625 -2.890625q0.421875 -1.328125 1.234375 -2.28125q0.828125 -0.96875 2.0625 -1.5q1.234375 -0.5312481 2.875 -0.5312481q1.59375 0 2.765625 0.4687481q1.1875 0.46875 1.96875 1.375q0.796875 0.90625 1.1875 2.203125q0.390625 1.28125 0.390625 2.890625zm-2.484375 0.171875q0 -1.046875 -0.203125 -1.96875q-0.1875 -0.9375 -0.640625 -1.640625q-0.4375 -0.703125 -1.203125 -1.109375q-0.75 -0.421875 -1.875 -0.421875q-1.046875 0 -1.796875 0.375q-0.75 0.375 -1.25 1.0625q-0.484375 0.671875 -0.71875 1.609375q-0.234375 0.921875 -0.234375 2.03125q0 1.0625 0.1875 2.0q0.203125 0.921875 0.65625 1.625q0.453125 0.6875 1.203125 1.09375q0.765625 0.40625 1.890625 0.40625q1.03125 0 1.78125 -0.375q0.765625 -0.375 1.25 -1.046875q0.5 -0.671875 0.71875 -1.59375q0.234375 -0.9375 0.234375 -2.046875zm17.012878 6.421875q0 0.109375 -0.0625 0.203125q-0.046875 0.078125 -0.171875 0.140625q-0.109375 0.046875 -0.3125 0.0625q-0.203125 0.03125 -0.484375 0.03125q-0.296875 0 -0.5 -0.03125q-0.203125 -0.015625 -0.34375 -0.0625q-0.125 -0.0625 -0.1875 -0.140625q-0.046875 -0.09375 -0.046875 -0.203125l0 -1.703125q-1.015625 1.109375 -2.109375 1.71875q-1.09375 0.609375 -2.40625 0.609375q-1.40625 0 -2.421875 -0.546875q-1.0 -0.546875 -1.625 -1.484375q-0.609375 -0.9375 -0.90625 -2.203125q-0.28125 -1.265625 -0.28125 -2.671875q0 -1.671875 0.359375 -3.0q0.359375 -1.34375 1.0625 -2.28125q0.703125 -0.953125 1.734375 -1.453125q1.046875 -0.5156231 2.40625 -0.5156231q1.125 0 2.0625 0.4999981q0.9375 0.484375 1.859375 1.453125l0 -7.499998q0 -0.09375 0.046875 -0.1875q0.046875 -0.09375 0.1875 -0.140625q0.140625 -0.046875 0.359375 -0.078125q0.234375 -0.046875 0.578125 -0.046875q0.359375 0 0.578125 0.046875q0.234375 0.03125 0.359375 0.078125q0.140625 0.046875 0.203125 0.140625q0.0625 0.09375 0.0625 0.1875l0 19.078123zm-2.375 -9.0625q-0.96875 -1.1875 -1.859375 -1.8125q-0.890625 -0.625 -1.875 -0.625q-0.890625 0 -1.53125 0.4375q-0.625 0.421875 -1.015625 1.125q-0.390625 0.703125 -0.578125 1.59375q-0.171875 0.890625 -0.171875 1.796875q0 0.984375 0.140625 1.921875q0.15625 0.921875 0.53125 1.640625q0.375 0.71875 0.984375 1.15625q0.609375 0.4375 1.546875 0.4375q0.46875 0 0.90625 -0.125q0.4375 -0.125 0.890625 -0.421875q0.46875 -0.3125 0.96875 -0.78125q0.5 -0.484375 1.0625 -1.1875l0 -5.15625zm17.736877 2.0625q0 0.5625 -0.28125 0.796875q-0.28125 0.234375 -0.640625 0.234375l-8.4375 0q0 1.078125 0.203125 1.9375q0.21875 0.859375 0.71875 1.46875q0.5 0.609375 1.296875 0.953125q0.8125 0.328125 1.96875 0.328125q0.921875 0 1.640625 -0.15625q0.71875 -0.15625 1.234375 -0.328125q0.515625 -0.1875 0.859375 -0.34375q0.34375 -0.15625 0.515625 -0.15625q0.09375 0 0.171875 0.0625q0.078125 0.046875 0.125 0.15625q0.046875 0.09375 0.0625 0.265625q0.015625 0.171875 0.015625 0.4375q0 0.1875 -0.015625 0.328125q-0.015625 0.125 -0.03125 0.234375q-0.015625 0.109375 -0.078125 0.203125q-0.046875 0.078125 -0.125 0.15625q-0.078125 0.078125 -0.46875 0.265625q-0.375 0.171875 -1.0 0.34375q-0.609375 0.171875 -1.421875 0.296875q-0.8125 0.140625 -1.71875 0.140625q-1.59375 0 -2.796875 -0.4375q-1.1875 -0.4375 -2.015625 -1.3125q-0.8125 -0.875 -1.234375 -2.1875q-0.40625 -1.328125 -0.40625 -3.078125q0 -1.65625 0.421875 -2.984375q0.4375 -1.328125 1.25 -2.25q0.8125 -0.921875 1.953125 -1.40625q1.140625 -0.4999981 2.5625 -0.4999981q1.515625 0 2.578125 0.4843731q1.078125 0.484375 1.765625 1.3125q0.6875 0.828125 1.0 1.9375q0.328125 1.109375 0.328125 2.359375l0 0.4375zm-2.375 -0.703125q0.046875 -1.859375 -0.828125 -2.921875q-0.859375 -1.0625 -2.5625 -1.0625q-0.875 0 -1.53125 0.328125q-0.65625 0.328125 -1.109375 0.875q-0.4375 0.546875 -0.6875 1.28125q-0.234375 0.71875 -0.265625 1.5l6.984375 0zm8.326843 7.703125q0 0.109375 -0.0625 0.203125q-0.046875 0.078125 -0.171875 0.140625q-0.125 0.046875 -0.359375 0.0625q-0.234375 0.03125 -0.59375 0.03125q-0.34375 0 -0.578125 -0.03125q-0.21875 -0.015625 -0.359375 -0.0625q-0.125 -0.0625 -0.1875 -0.140625q-0.046875 -0.09375 -0.046875 -0.203125l0 -19.124998q0 -0.125 0.046875 -0.203125q0.0625 -0.09375 0.1875 -0.140625q0.140625 -0.0625 0.359375 -0.09375q0.234375 -0.03125 0.578125 -0.03125q0.359375 0 0.59375 0.03125q0.234375 0.03125 0.359375 0.09375q0.125 0.046875 0.171875 0.140625q0.0625 0.078125 0.0625 0.203125l0 19.124998zm12.464905 -3.5q0 0.984375 -0.375 1.765625q-0.359375 0.765625 -1.03125 1.296875q-0.671875 0.53125 -1.609375 0.796875q-0.921875 0.265625 -2.03125 0.265625q-0.6875 0 -1.3125 -0.109375q-0.625 -0.09375 -1.125 -0.25q-0.484375 -0.171875 -0.828125 -0.34375q-0.34375 -0.1875 -0.515625 -0.328125q-0.15625 -0.15625 -0.234375 -0.40625q-0.0625 -0.265625 -0.0625 -0.703125q0 -0.265625 0.03125 -0.453125q0.03125 -0.1875 0.0625 -0.296875q0.046875 -0.125 0.125 -0.171875q0.078125 -0.046875 0.1875 -0.046875q0.15625 0 0.453125 0.1875q0.3125 0.1875 0.765625 0.421875q0.453125 0.234375 1.0625 0.421875q0.625 0.1875 1.421875 0.1875q0.609375 0 1.09375 -0.125q0.484375 -0.125 0.84375 -0.375q0.359375 -0.25 0.546875 -0.640625q0.203125 -0.390625 0.203125 -0.921875q0 -0.53125 -0.28125 -0.90625q-0.28125 -0.375 -0.75 -0.65625q-0.453125 -0.296875 -1.03125 -0.515625q-0.5625 -0.21875 -1.171875 -0.453125q-0.609375 -0.25 -1.1875 -0.5625q-0.578125 -0.3125 -1.046875 -0.75q-0.453125 -0.4375 -0.734375 -1.046875q-0.28125 -0.625 -0.28125 -1.484375q0 -0.765625 0.296875 -1.453125q0.296875 -0.703125 0.875 -1.21875q0.59375 -0.53125 1.46875 -0.84375q0.890625 -0.3124981 2.0625 -0.3124981q0.515625 0 1.03125 0.09375q0.515625 0.078125 0.921875 0.2031231q0.421875 0.125 0.71875 0.28125q0.296875 0.15625 0.4375 0.265625q0.15625 0.109375 0.203125 0.203125q0.046875 0.078125 0.0625 0.1875q0.03125 0.109375 0.046875 0.265625q0.03125 0.15625 0.03125 0.390625q0 0.25 -0.03125 0.421875q-0.015625 0.171875 -0.0625 0.296875q-0.046875 0.109375 -0.125 0.171875q-0.0625 0.046875 -0.15625 0.046875q-0.125 0 -0.375 -0.15625q-0.234375 -0.171875 -0.625 -0.34375q-0.390625 -0.1875 -0.921875 -0.34375q-0.515625 -0.15625 -1.1875 -0.15625q-0.59375 0 -1.0625 0.140625q-0.453125 0.140625 -0.75 0.390625q-0.296875 0.25 -0.453125 0.59375q-0.140625 0.34375 -0.140625 0.734375q0 0.5625 0.28125 0.953125q0.296875 0.375 0.75 0.65625q0.46875 0.28125 1.046875 0.515625q0.59375 0.234375 1.203125 0.484375q0.609375 0.234375 1.203125 0.53125q0.59375 0.296875 1.046875 0.734375q0.453125 0.421875 0.734375 1.03125q0.28125 0.59375 0.28125 1.4375zm21.429138 -4.390625q0 0.28125 -0.046875 0.46875q-0.046875 0.1875 -0.125 0.328125q-0.0625 0.125 -0.171875 0.1875q-0.09375 0.046875 -0.203125 0.046875l-4.703125 0l0 5.21875q0 0.109375 -0.0625 0.1875q-0.046875 0.078125 -0.171875 0.140625q-0.125 0.046875 -0.328125 0.09375q-0.1875 0.03125 -0.5 0.03125q-0.28125 0 -0.484375 -0.03125q-0.203125 -0.046875 -0.328125 -0.09375q-0.125 -0.0625 -0.1875 -0.140625q-0.046875 -0.078125 -0.046875 -0.1875l0 -5.21875l-4.703125 0q-0.125 0 -0.21875 -0.046875q-0.09375 -0.0625 -0.171875 -0.1875q-0.0625 -0.140625 -0.109375 -0.328125q-0.046875 -0.1875 -0.046875 -0.46875q0 -0.25 0.046875 -0.4375q0.046875 -0.203125 0.109375 -0.328125q0.078125 -0.140625 0.171875 -0.1875q0.09375 -0.0625 0.203125 -0.0625l4.71875 0l0 -5.218748q0 -0.109375 0.046875 -0.203125q0.0625 -0.09375 0.1875 -0.15625q0.125 -0.0625 0.328125 -0.09375q0.203125 -0.046875 0.484375 -0.046875q0.3125 0 0.5 0.046875q0.203125 0.03125 0.328125 0.09375q0.125 0.0625 0.171875 0.15625q0.0625 0.09375 0.0625 0.203125l0 5.218748l4.71875 0q0.109375 0 0.203125 0.0625q0.09375 0.046875 0.171875 0.1875q0.078125 0.125 0.109375 0.328125q0.046875 0.1875 0.046875 0.4375zm22.299622 2.9375q0 0.875 -0.21875 1.609375q-0.21875 0.734375 -0.625 1.328125q-0.390625 0.578125 -0.96875 1.03125q-0.5625 0.4375 -1.265625 0.75q-0.703125 0.296875 -1.515625 0.453125q-0.8125 0.140625 -1.859375 0.140625l-4.84375 0q-0.328125 0 -0.625 -0.21875q-0.28125 -0.21875 -0.28125 -0.78125l0 -16.531248q0 -0.5625 0.28125 -0.78125q0.296875 -0.21875 0.625 -0.21875l4.21875 0q1.65625 0 2.71875 0.3125q1.0625 0.3125 1.765625 0.921875q0.703125 0.59375 1.0625 1.46875q0.359375 0.875 0.359375 1.984375q0 0.6562481 -0.15625 1.2656231q-0.15625 0.59375 -0.46875 1.109375q-0.296875 0.5 -0.765625 0.90625q-0.46875 0.390625 -1.0625 0.65625q0.75 0.140625 1.40625 0.53125q0.671875 0.375 1.15625 0.96875q0.5 0.578125 0.78125 1.359375q0.28125 0.78125 0.28125 1.734375zm-3.703125 -8.296875q0 -0.6718731 -0.1875 -1.2031231q-0.1875 -0.546875 -0.59375 -0.921875q-0.390625 -0.390625 -1.046875 -0.59375q-0.640625 -0.203125 -1.6875 -0.203125l-2.5625 0l0 5.999998l2.8125 0q0.953125 0 1.546875 -0.25q0.59375 -0.25 0.96875 -0.671875q0.390625 -0.421875 0.5625 -0.984375q0.1875 -0.5625 0.1875 -1.171875zm1.125 8.4375q0 -0.828125 -0.265625 -1.453125q-0.265625 -0.640625 -0.78125 -1.0625q-0.5 -0.4375 -1.28125 -0.65625q-0.765625 -0.21875 -1.921875 -0.21875l-2.953125 0l0 6.53125l3.59375 0q0.84375 0 1.46875 -0.203125q0.625 -0.203125 1.109375 -0.59375q0.484375 -0.390625 0.75 -0.96875q0.28125 -0.59375 0.28125 -1.375zm13.577881 -7.234375q0 0.3125 -0.015625 0.53125q-0.015625 0.21875 -0.0625 0.34375q-0.03125 0.125 -0.09375 0.1875q-0.0625 0.0625 -0.1875 0.0625q-0.109375 0 -0.28125 -0.0625q-0.15625 -0.0625 -0.375 -0.125q-0.203125 -0.078125 -0.46875 -0.125q-0.25 -0.0625 -0.546875 -0.0625q-0.359375 0 -0.703125 0.140625q-0.34375 0.140625 -0.71875 0.46875q-0.375 0.328125 -0.796875 0.875q-0.40625 0.546875 -0.921875 1.34375l0 8.46875q0 0.109375 -0.0625 0.203125q-0.046875 0.078125 -0.171875 0.140625q-0.125 0.046875 -0.359375 0.0625q-0.234375 0.03125 -0.59375 0.03125q-0.34375 0 -0.578125 -0.03125q-0.21875 -0.015625 -0.359375 -0.0625q-0.125 -0.0625 -0.1875 -0.140625q-0.046875 -0.09375 -0.046875 -0.203125l0 -12.890625q0 -0.109375 0.046875 -0.1875q0.046875 -0.078125 0.171875 -0.140625q0.125 -0.0625 0.328125 -0.078125q0.203125 -0.03125 0.53125 -0.03125q0.3125 0 0.515625 0.03125q0.21875 0.015625 0.328125 0.078125q0.109375 0.0625 0.15625 0.140625q0.0625 0.078125 0.0625 0.1875l0 1.875q0.53125 -0.765625 0.984375 -1.25q0.46875 -0.5 0.875 -0.765625q0.421875 -0.28125 0.828125 -0.3906231q0.421875 -0.109375 0.828125 -0.109375q0.1875 0 0.421875 0.03125q0.234375 0.015625 0.484375 0.078125q0.265625 0.046875 0.46875 0.12499809q0.21875 0.0625 0.296875 0.140625q0.09375 0.0625 0.125 0.140625q0.03125 0.0625 0.046875 0.15625q0.015625 0.09375 0.015625 0.296875q0.015625 0.1875 0.015625 0.515625zm11.810669 12.0625q0 0.171875 -0.125 0.265625q-0.109375 0.078125 -0.3125 0.109375q-0.203125 0.046875 -0.578125 0.046875q-0.375 0 -0.609375 -0.046875q-0.21875 -0.03125 -0.328125 -0.109375q-0.09375 -0.09375 -0.09375 -0.265625l0 -1.28125q-0.84375 0.890625 -1.875 1.390625q-1.03125 0.5 -2.203125 0.5q-1.015625 0 -1.84375 -0.265625q-0.8125 -0.25 -1.390625 -0.75q-0.578125 -0.515625 -0.90625 -1.234375q-0.328125 -0.734375 -0.328125 -1.671875q0 -1.078125 0.4375 -1.875q0.453125 -0.8125 1.28125 -1.34375q0.828125 -0.53125 2.03125 -0.796875q1.203125 -0.265625 2.71875 -0.265625l1.765625 0l0 -1.0q0 -0.75 -0.15625 -1.3125q-0.15625 -0.578125 -0.515625 -0.953125q-0.34375 -0.375 -0.90625 -0.5625q-0.546875 -0.203125 -1.359375 -0.203125q-0.875 0 -1.578125 0.203125q-0.6875 0.203125 -1.21875 0.453125q-0.515625 0.25 -0.875 0.46875q-0.34375 0.203125 -0.515625 0.203125q-0.109375 0 -0.203125 -0.046875q-0.078125 -0.0625 -0.15625 -0.171875q-0.0625 -0.125 -0.09375 -0.296875q-0.015625 -0.1875 -0.015625 -0.40625q0 -0.359375 0.046875 -0.5625q0.046875 -0.203125 0.234375 -0.390625q0.203125 -0.1875 0.671875 -0.4375q0.46875 -0.25 1.078125 -0.453125q0.625 -0.21875 1.359375 -0.3437481q0.734375 -0.140625 1.46875 -0.140625q1.390625 0 2.359375 0.3124981q0.984375 0.3125 1.578125 0.921875q0.609375 0.609375 0.875 1.515625q0.28125 0.90625 0.28125 2.109375l0 8.6875zm-2.359375 -5.890625l-2.015625 0q-0.96875 0 -1.6875 0.171875q-0.71875 0.15625 -1.1875 0.484375q-0.46875 0.328125 -0.703125 0.78125q-0.21875 0.4375 -0.21875 1.03125q0 1.0 0.640625 1.59375q0.640625 0.59375 1.78125 0.59375q0.9375 0 1.71875 -0.46875q0.796875 -0.46875 1.671875 -1.453125l0 -2.734375zm9.048279 5.875q0 0.109375 -0.0625 0.203125q-0.046875 0.078125 -0.171875 0.140625q-0.125 0.046875 -0.359375 0.0625q-0.234375 0.03125 -0.59375 0.03125q-0.34375 0 -0.578125 -0.03125q-0.21875 -0.015625 -0.359375 -0.0625q-0.125 -0.0625 -0.1875 -0.140625q-0.046875 -0.09375 -0.046875 -0.203125l0 -12.890625q0 -0.09375 0.046875 -0.171875q0.0625 -0.09375 0.1875 -0.15625q0.140625 -0.0625 0.359375 -0.078125q0.234375 -0.03125 0.578125 -0.03125q0.359375 0 0.59375 0.03125q0.234375 0.015625 0.359375 0.078125q0.125 0.0625 0.171875 0.15625q0.0625 0.078125 0.0625 0.171875l0 12.890625zm0.28125 -17.234373q0 0.828125 -0.3125 1.125q-0.3125 0.296875 -1.171875 0.296875q-0.828125 0 -1.140625 -0.28125q-0.296875 -0.296875 -0.296875 -1.125q0 -0.828125 0.3125 -1.125q0.3125 -0.296875 1.15625 -0.296875q0.828125 0 1.140625 0.296875q0.3125 0.28125 0.3125 1.109375zm15.199341 17.234373q0 0.109375 -0.0625 0.203125q-0.0625 0.078125 -0.1875 0.140625q-0.125 0.046875 -0.359375 0.0625q-0.234375 0.03125 -0.578125 0.03125q-0.359375 0 -0.59375 -0.03125q-0.21875 -0.015625 -0.34375 -0.0625q-0.125 -0.0625 -0.1875 -0.140625q-0.0625 -0.09375 -0.0625 -0.203125l0 -7.546875q0 -1.09375 -0.171875 -1.765625q-0.171875 -0.6875 -0.5 -1.171875q-0.328125 -0.484375 -0.859375 -0.734375q-0.515625 -0.265625 -1.203125 -0.265625q-0.890625 0 -1.78125 0.640625q-0.875 0.625 -1.859375 1.84375l0 9.0q0 0.109375 -0.0625 0.203125q-0.046875 0.078125 -0.171875 0.140625q-0.125 0.046875 -0.359375 0.0625q-0.234375 0.03125 -0.59375 0.03125q-0.34375 0 -0.578125 -0.03125q-0.21875 -0.015625 -0.359375 -0.0625q-0.125 -0.0625 -0.1875 -0.140625q-0.046875 -0.09375 -0.046875 -0.203125l0 -12.890625q0 -0.109375 0.046875 -0.1875q0.046875 -0.078125 0.171875 -0.140625q0.125 -0.0625 0.328125 -0.078125q0.203125 -0.03125 0.53125 -0.03125q0.3125 0 0.515625 0.03125q0.21875 0.015625 0.328125 0.078125q0.109375 0.0625 0.15625 0.140625q0.0625 0.078125 0.0625 0.1875l0 1.703125q1.078125 -1.21875 2.15625 -1.78125q1.09375 -0.5624981 2.1875 -0.5624981q1.296875 0 2.171875 0.4374981q0.890625 0.4375 1.421875 1.171875q0.546875 0.71875 0.78125 1.703125q0.25 0.984375 0.25 2.359375l0 7.859375zm12.393127 -3.5q0 0.984375 -0.375 1.765625q-0.359375 0.765625 -1.03125 1.296875q-0.671875 0.53125 -1.609375 0.796875q-0.921875 0.265625 -2.03125 0.265625q-0.6875 0 -1.3125 -0.109375q-0.625 -0.09375 -1.125 -0.25q-0.484375 -0.171875 -0.828125 -0.34375q-0.34375 -0.1875 -0.515625 -0.328125q-0.15625 -0.15625 -0.234375 -0.40625q-0.0625 -0.265625 -0.0625 -0.703125q0 -0.265625 0.03125 -0.453125q0.03125 -0.1875 0.0625 -0.296875q0.046875 -0.125 0.125 -0.171875q0.078125 -0.046875 0.1875 -0.046875q0.15625 0 0.453125 0.1875q0.3125 0.1875 0.765625 0.421875q0.453125 0.234375 1.0625 0.421875q0.625 0.1875 1.421875 0.1875q0.609375 0 1.09375 -0.125q0.484375 -0.125 0.84375 -0.375q0.359375 -0.25 0.546875 -0.640625q0.203125 -0.390625 0.203125 -0.921875q0 -0.53125 -0.28125 -0.90625q-0.28125 -0.375 -0.75 -0.65625q-0.453125 -0.296875 -1.03125 -0.515625q-0.5625 -0.21875 -1.171875 -0.453125q-0.609375 -0.25 -1.1875 -0.5625q-0.578125 -0.3125 -1.046875 -0.75q-0.453125 -0.4375 -0.734375 -1.046875q-0.28125 -0.625 -0.28125 -1.484375q0 -0.765625 0.296875 -1.453125q0.296875 -0.703125 0.875 -1.21875q0.59375 -0.53125 1.46875 -0.84375q0.890625 -0.3124981 2.0625 -0.3124981q0.515625 0 1.03125 0.09375q0.515625 0.078125 0.921875 0.2031231q0.421875 0.125 0.71875 0.28125q0.296875 0.15625 0.4375 0.265625q0.15625 0.109375 0.203125 0.203125q0.046875 0.078125 0.0625 0.1875q0.03125 0.109375 0.046875 0.265625q0.03125 0.15625 0.03125 0.390625q0 0.25 -0.03125 0.421875q-0.015625 0.171875 -0.0625 0.296875q-0.046875 0.109375 -0.125 0.171875q-0.0625 0.046875 -0.15625 0.046875q-0.125 0 -0.375 -0.15625q-0.234375 -0.171875 -0.625 -0.34375q-0.390625 -0.1875 -0.921875 -0.34375q-0.515625 -0.15625 -1.1875 -0.15625q-0.59375 0 -1.0625 0.140625q-0.453125 0.140625 -0.75 0.390625q-0.296875 0.25 -0.453125 0.59375q-0.140625 0.34375 -0.140625 0.734375q0 0.5625 0.28125 0.953125q0.296875 0.375 0.75 0.65625q0.46875 0.28125 1.046875 0.515625q0.59375 0.234375 1.203125 0.484375q0.609375 0.234375 1.203125 0.53125q0.59375 0.296875 1.046875 0.734375q0.453125 0.421875 0.734375 1.03125q0.28125 0.59375 0.28125 1.4375z" fill-rule="nonzero"/><path fill="#c9daf8" d="m2.8740191 131.1214l107.338585 0l0 51.842514l-107.338585 0z" fill-rule="evenodd"/><path stroke="#595959" stroke-width="1.0" stroke-linejoin="round" stroke-linecap="butt" d="m2.8740191 131.1214l107.338585 0l0 51.842514l-107.338585 0z" fill-rule="evenodd"/><path fill="#000000" d="m53.349953 165.25453q0 0.09375 -0.046875 0.171875q-0.03125 0.078125 -0.15625 0.125q-0.109375 0.046875 -0.3125 0.078125q-0.203125 0.03125 -0.515625 0.03125q-0.40625 0 -0.671875 -0.046875q-0.25 -0.03125 -0.390625 -0.125q-0.125 -0.09375 -0.203125 -0.21875l-5.578125 -7.578125l0 7.578125q0 0.09375 -0.046875 0.171875q-0.046875 0.0625 -0.171875 0.109375q-0.109375 0.046875 -0.3125 0.078125q-0.1875 0.03125 -0.46875 0.03125q-0.28125 0 -0.484375 -0.03125q-0.203125 -0.03125 -0.328125 -0.078125q-0.109375 -0.046875 -0.15625 -0.109375q-0.046875 -0.078125 -0.046875 -0.171875l0 -14.546875q0 -0.09375 0.046875 -0.15625q0.046875 -0.078125 0.15625 -0.109375q0.125 -0.046875 0.328125 -0.078125q0.203125 -0.03125 0.484375 -0.03125q0.28125 0 0.46875 0.03125q0.203125 0.03125 0.3125 0.078125q0.125 0.03125 0.171875 0.109375q0.046875 0.0625 0.046875 0.15625l0 6.734375l5.375 -6.734375q0.0625 -0.109375 0.15625 -0.171875q0.09375 -0.078125 0.21875 -0.109375q0.140625 -0.046875 0.328125 -0.0625q0.203125 -0.03125 0.515625 -0.03125q0.296875 0 0.484375 0.03125q0.1875 0.03125 0.296875 0.078125q0.109375 0.046875 0.15625 0.125q0.046875 0.0625 0.046875 0.140625q0 0.15625 -0.078125 0.3125q-0.078125 0.140625 -0.296875 0.40625l-5.015625 6.015625l5.40625 7.203125q0.203125 0.296875 0.234375 0.40625q0.046875 0.109375 0.046875 0.1875zm11.738281 -5.359375q0 1.296875 -0.34375 2.375q-0.34375 1.078125 -1.015625 1.875q-0.671875 0.78125 -1.6875 1.21875q-1.015625 0.4375 -2.34375 0.4375q-1.3125 0 -2.28125 -0.375q-0.953125 -0.390625 -1.609375 -1.125q-0.640625 -0.75 -0.953125 -1.796875q-0.3125 -1.0625 -0.3125 -2.390625q0 -1.296875 0.328125 -2.375q0.328125 -1.09375 1.0 -1.875q0.6875 -0.78125 1.6875 -1.21875q1.015625 -0.4375 2.359375 -0.4375q1.296875 0 2.265625 0.390625q0.96875 0.390625 1.609375 1.125q0.640625 0.734375 0.96875 1.796875q0.328125 1.046875 0.328125 2.375zm-2.046875 0.125q0 -0.84375 -0.15625 -1.609375q-0.15625 -0.765625 -0.53125 -1.328125q-0.359375 -0.578125 -0.984375 -0.90625q-0.609375 -0.34375 -1.53125 -0.34375q-0.859375 0 -1.484375 0.3125q-0.609375 0.296875 -1.015625 0.859375q-0.390625 0.546875 -0.59375 1.3125q-0.1875 0.765625 -0.1875 1.65625q0 0.875 0.15625 1.640625q0.171875 0.75 0.53125 1.328125q0.375 0.5625 0.984375 0.90625q0.625 0.328125 1.5625 0.328125q0.84375 0 1.453125 -0.296875q0.625 -0.3125 1.015625 -0.859375q0.40625 -0.5625 0.59375 -1.3125q0.1875 -0.765625 0.1875 -1.6875zm6.828125 5.265625q0 0.09375 -0.046875 0.15625q-0.046875 0.0625 -0.15625 0.125q-0.109375 0.046875 -0.296875 0.0625q-0.1875 0.03125 -0.484375 0.03125q-0.28125 0 -0.46875 -0.03125q-0.1875 -0.015625 -0.296875 -0.0625q-0.109375 -0.0625 -0.15625 -0.125q-0.03125 -0.0625 -0.03125 -0.15625l0 -10.546875q0 -0.078125 0.03125 -0.140625q0.046875 -0.078125 0.15625 -0.125q0.109375 -0.046875 0.296875 -0.0625q0.1875 -0.03125 0.46875 -0.03125q0.296875 0 0.484375 0.03125q0.1875 0.015625 0.296875 0.0625q0.109375 0.046875 0.15625 0.125q0.046875 0.0625 0.046875 0.140625l0 10.546875zm0.21875 -14.109375q0 0.6875 -0.265625 0.9375q-0.25 0.234375 -0.9375 0.234375q-0.6875 0 -0.9375 -0.234375q-0.25 -0.25 -0.25 -0.90625q0 -0.6875 0.25 -0.921875q0.265625 -0.25 0.953125 -0.25q0.6875 0 0.9375 0.234375q0.25 0.234375 0.25 0.90625z" fill-rule="nonzero"/><path fill="#c9daf8" d="m129.24411 131.1214l107.33858 0l0 51.842514l-107.33858 0z" fill-rule="evenodd"/><path stroke="#595959" stroke-width="1.0" stroke-linejoin="round" stroke-linecap="butt" d="m129.24411 131.1214l107.33858 0l0 51.842514l-107.33858 0z" fill-rule="evenodd"/><path fill="#000000" d="m155.10089 154.8639q0 1.125 -0.375 2.046875q-0.375 0.90625 -1.078125 1.5625q-0.6875 0.640625 -1.703125 1.0q-1.015625 0.34375 -2.421875 0.34375l-1.71875 0l0 5.453125q0 0.09375 -0.0625 0.171875q-0.046875 0.0625 -0.15625 0.109375q-0.109375 0.046875 -0.3125 0.078125q-0.1875 0.03125 -0.46875 0.03125q-0.296875 0 -0.5 -0.03125q-0.1875 -0.03125 -0.3125 -0.078125q-0.109375 -0.046875 -0.15625 -0.109375q-0.046875 -0.078125 -0.046875 -0.171875l0 -13.984375q0 -0.46875 0.25 -0.671875q0.25 -0.203125 0.546875 -0.203125l3.25 0q0.484375 0 0.9375 0.046875q0.453125 0.046875 1.0625 0.1875q0.625 0.125 1.265625 0.5q0.640625 0.359375 1.078125 0.90625q0.453125 0.53125 0.6875 1.25q0.234375 0.703125 0.234375 1.5625zm-2.109375 0.15625q0 -0.921875 -0.359375 -1.546875q-0.34375 -0.625 -0.859375 -0.921875q-0.5 -0.3125 -1.046875 -0.390625q-0.546875 -0.078125 -1.0625 -0.078125l-1.859375 0l0 6.078125l1.8125 0q0.921875 0 1.515625 -0.234375q0.609375 -0.234375 1.015625 -0.640625q0.421875 -0.421875 0.625 -1.0q0.21875 -0.578125 0.21875 -1.265625zm14.308594 4.875q0 1.296875 -0.34375 2.375q-0.34375 1.078125 -1.015625 1.875q-0.671875 0.78125 -1.6875 1.21875q-1.015625 0.4375 -2.34375 0.4375q-1.3125 0 -2.28125 -0.375q-0.953125 -0.390625 -1.609375 -1.125q-0.640625 -0.75 -0.953125 -1.796875q-0.3125 -1.0625 -0.3125 -2.390625q0 -1.296875 0.328125 -2.375q0.328125 -1.09375 1.0 -1.875q0.6875 -0.78125 1.6875 -1.21875q1.015625 -0.4375 2.359375 -0.4375q1.296875 0 2.265625 0.390625q0.96875 0.390625 1.609375 1.125q0.640625 0.734375 0.96875 1.796875q0.328125 1.046875 0.328125 2.375zm-2.046875 0.125q0 -0.84375 -0.15625 -1.609375q-0.15625 -0.765625 -0.53125 -1.328125q-0.359375 -0.578125 -0.984375 -0.90625q-0.609375 -0.34375 -1.53125 -0.34375q-0.859375 0 -1.484375 0.3125q-0.609375 0.296875 -1.015625 0.859375q-0.390625 0.546875 -0.59375 1.3125q-0.1875 0.765625 -0.1875 1.65625q0 0.875 0.15625 1.640625q0.171875 0.75 0.53125 1.328125q0.375 0.5625 0.984375 0.90625q0.625 0.328125 1.5625 0.328125q0.84375 0 1.453125 -0.296875q0.625 -0.3125 1.015625 -0.859375q0.40625 -0.5625 0.59375 -1.3125q0.1875 -0.765625 0.1875 -1.6875zm11.515625 2.390625q0 0.8125 -0.3125 1.453125q-0.296875 0.625 -0.84375 1.0625q-0.546875 0.4375 -1.3125 0.65625q-0.765625 0.21875 -1.671875 0.21875q-0.5625 0 -1.078125 -0.09375q-0.5 -0.078125 -0.90625 -0.203125q-0.40625 -0.140625 -0.6875 -0.28125q-0.28125 -0.15625 -0.421875 -0.265625q-0.125 -0.125 -0.1875 -0.328125q-0.046875 -0.21875 -0.046875 -0.578125q0 -0.234375 0.015625 -0.375q0.03125 -0.15625 0.0625 -0.25q0.03125 -0.09375 0.09375 -0.125q0.078125 -0.046875 0.15625 -0.046875q0.125 0 0.375 0.15625q0.25 0.15625 0.625 0.34375q0.375 0.1875 0.875 0.34375q0.5 0.15625 1.15625 0.15625q0.5 0 0.890625 -0.09375q0.40625 -0.109375 0.6875 -0.3125q0.296875 -0.21875 0.453125 -0.53125q0.15625 -0.3125 0.15625 -0.75q0 -0.4375 -0.234375 -0.734375q-0.21875 -0.3125 -0.59375 -0.546875q-0.375 -0.234375 -0.84375 -0.421875q-0.46875 -0.1875 -0.96875 -0.375q-0.5 -0.203125 -0.96875 -0.453125q-0.46875 -0.25 -0.84375 -0.609375q-0.375 -0.375 -0.609375 -0.875q-0.234375 -0.5 -0.234375 -1.203125q0 -0.625 0.234375 -1.1875q0.25 -0.578125 0.734375 -1.0q0.484375 -0.4375 1.203125 -0.6875q0.71875 -0.265625 1.671875 -0.265625q0.421875 0 0.84375 0.078125q0.421875 0.0625 0.765625 0.171875q0.34375 0.109375 0.578125 0.234375q0.25 0.125 0.359375 0.21875q0.125 0.09375 0.171875 0.171875q0.046875 0.0625 0.0625 0.15625q0.015625 0.078125 0.03125 0.203125q0.015625 0.125 0.015625 0.3125q0 0.203125 -0.015625 0.359375q-0.015625 0.140625 -0.0625 0.234375q-0.03125 0.09375 -0.09375 0.140625q-0.0625 0.03125 -0.125 0.03125q-0.109375 0 -0.3125 -0.125q-0.203125 -0.125 -0.515625 -0.265625q-0.3125 -0.15625 -0.75 -0.28125q-0.421875 -0.140625 -0.96875 -0.140625q-0.5 0 -0.875 0.125q-0.375 0.109375 -0.609375 0.3125q-0.234375 0.203125 -0.359375 0.484375q-0.125 0.28125 -0.125 0.609375q0 0.453125 0.234375 0.765625q0.234375 0.3125 0.609375 0.546875q0.375 0.234375 0.84375 0.421875q0.484375 0.1875 0.984375 0.390625q0.5 0.1875 0.984375 0.4375q0.484375 0.25 0.859375 0.609375q0.375 0.34375 0.609375 0.84375q0.234375 0.484375 0.234375 1.15625zm4.6992188 2.875q0 0.09375 -0.046875 0.15625q-0.046875 0.0625 -0.15625 0.125q-0.109375 0.046875 -0.296875 0.0625q-0.1875 0.03125 -0.484375 0.03125q-0.28125 0 -0.46875 -0.03125q-0.1875 -0.015625 -0.296875 -0.0625q-0.109375 -0.0625 -0.15625 -0.125q-0.03125 -0.0625 -0.03125 -0.15625l0 -10.546875q0 -0.078125 0.03125 -0.140625q0.046875 -0.078125 0.15625 -0.125q0.109375 -0.046875 0.296875 -0.0625q0.1875 -0.03125 0.46875 -0.03125q0.296875 0 0.484375 0.03125q0.1875 0.015625 0.296875 0.0625q0.109375 0.046875 0.15625 0.125q0.046875 0.0625 0.046875 0.140625l0 10.546875zm0.21875 -14.109375q0 0.6875 -0.265625 0.9375q-0.25 0.234375 -0.9375 0.234375q-0.6875 0 -0.9375 -0.234375q-0.25 -0.25 -0.25 -0.90625q0 -0.6875 0.25 -0.921875q0.265625 -0.25 0.953125 -0.25q0.6875 0 0.9375 0.234375q0.25 0.234375 0.25 0.90625zm8.8359375 13.34375q0 0.328125 -0.046875 0.53125q-0.046875 0.203125 -0.140625 0.296875q-0.09375 0.09375 -0.28125 0.1875q-0.1875 0.078125 -0.4375 0.125q-0.234375 0.046875 -0.5 0.078125q-0.265625 0.046875 -0.546875 0.046875q-0.8125 0 -1.40625 -0.21875q-0.578125 -0.21875 -0.953125 -0.65625q-0.375 -0.4375 -0.546875 -1.109375q-0.171875 -0.6875 -0.171875 -1.59375l0 -6.171875l-1.46875 0q-0.1875 0 -0.296875 -0.1875q-0.09375 -0.1875 -0.09375 -0.609375q0 -0.21875 0.03125 -0.359375q0.03125 -0.15625 0.078125 -0.25q0.046875 -0.109375 0.109375 -0.140625q0.078125 -0.046875 0.171875 -0.046875l1.46875 0l0 -2.515625q0 -0.078125 0.03125 -0.140625q0.046875 -0.078125 0.15625 -0.125q0.125 -0.0625 0.3125 -0.078125q0.1875 -0.03125 0.46875 -0.03125q0.28125 0 0.46875 0.03125q0.1875 0.015625 0.296875 0.078125q0.109375 0.046875 0.15625 0.125q0.046875 0.0625 0.046875 0.140625l0 2.515625l2.703125 0q0.09375 0 0.15625 0.046875q0.078125 0.03125 0.125 0.140625q0.0625 0.09375 0.078125 0.25q0.03125 0.140625 0.03125 0.359375q0 0.421875 -0.109375 0.609375q-0.109375 0.1875 -0.28125 0.1875l-2.703125 0l0 5.890625q0 1.09375 0.3125 1.65625q0.328125 0.546875 1.15625 0.546875q0.28125 0 0.484375 -0.046875q0.21875 -0.0625 0.375 -0.109375q0.171875 -0.0625 0.28125 -0.109375q0.125 -0.0625 0.21875 -0.0625q0.046875 0 0.09375 0.03125q0.0625 0.03125 0.09375 0.109375q0.03125 0.078125 0.046875 0.21875q0.03125 0.140625 0.03125 0.359375zm4.4922028 0.765625q0 0.09375 -0.046875 0.15625q-0.046875 0.0625 -0.15625 0.125q-0.109375 0.046875 -0.296875 0.0625q-0.1875 0.03125 -0.484375 0.03125q-0.28125 0 -0.46875 -0.03125q-0.1875 -0.015625 -0.296875 -0.0625q-0.10939026 -0.0625 -0.15626526 -0.125q-0.03125 -0.0625 -0.03125 -0.15625l0 -10.546875q0 -0.078125 0.03125 -0.140625q0.046875 -0.078125 0.15626526 -0.125q0.109375 -0.046875 0.296875 -0.0625q0.1875 -0.03125 0.46875 -0.03125q0.296875 0 0.484375 0.03125q0.1875 0.015625 0.296875 0.0625q0.109375 0.046875 0.15625 0.125q0.046875 0.0625 0.046875 0.140625l0 10.546875zm0.21875 -14.109375q0 0.6875 -0.265625 0.9375q-0.25 0.234375 -0.9375 0.234375q-0.6875 0 -0.93751526 -0.234375q-0.25 -0.25 -0.25 -0.90625q0 -0.6875 0.25 -0.921875q0.26564026 -0.25 0.95314026 -0.25q0.6875 0 0.9375 0.234375q0.25 0.234375 0.25 0.90625zm13.1640625 8.71875q0 1.296875 -0.34375 2.375q-0.34375 1.078125 -1.015625 1.875q-0.671875 0.78125 -1.6875 1.21875q-1.015625 0.4375 -2.34375 0.4375q-1.3125 0 -2.28125 -0.375q-0.953125 -0.390625 -1.609375 -1.125q-0.640625 -0.75 -0.953125 -1.796875q-0.3125 -1.0625 -0.3125 -2.390625q0 -1.296875 0.328125 -2.375q0.328125 -1.09375 1.0 -1.875q0.6875 -0.78125 1.6875 -1.21875q1.015625 -0.4375 2.359375 -0.4375q1.296875 0 2.265625 0.390625q0.96875 0.390625 1.609375 1.125q0.640625 0.734375 0.96875 1.796875q0.328125 1.046875 0.328125 2.375zm-2.046875 0.125q0 -0.84375 -0.15625 -1.609375q-0.15625 -0.765625 -0.53125 -1.328125q-0.359375 -0.578125 -0.984375 -0.90625q-0.609375 -0.34375 -1.53125 -0.34375q-0.859375 0 -1.484375 0.3125q-0.609375 0.296875 -1.015625 0.859375q-0.390625 0.546875 -0.59375 1.3125q-0.1875 0.765625 -0.1875 1.65625q0 0.875 0.15625 1.640625q0.171875 0.75 0.53125 1.328125q0.375 0.5625 0.984375 0.90625q0.625 0.328125 1.5625 0.328125q0.84375 0 1.453125 -0.296875q0.625 -0.3125 1.015625 -0.859375q0.40625 -0.5625 0.59375 -1.3125q0.1875 -0.765625 0.1875 -1.6875zm13.96875 5.265625q0 0.09375 -0.046875 0.15625q-0.046875 0.0625 -0.15625 0.125q-0.09375 0.046875 -0.28125 0.0625q-0.1875 0.03125 -0.46875 0.03125q-0.296875 0 -0.484375 -0.03125q-0.1875 -0.015625 -0.296875 -0.0625q-0.109375 -0.0625 -0.15625 -0.125q-0.046875 -0.0625 -0.046875 -0.15625l0 -6.171875q0 -0.90625 -0.140625 -1.453125q-0.140625 -0.546875 -0.40625 -0.9375q-0.265625 -0.40625 -0.703125 -0.609375q-0.421875 -0.21875 -0.984375 -0.21875q-0.71875 0 -1.453125 0.515625q-0.71875 0.515625 -1.515625 1.5l0 7.375q0 0.09375 -0.046875 0.15625q-0.046875 0.0625 -0.15625 0.125q-0.109375 0.046875 -0.296875 0.0625q-0.1875 0.03125 -0.484375 0.03125q-0.28125 0 -0.46875 -0.03125q-0.1875 -0.015625 -0.296875 -0.0625q-0.109375 -0.0625 -0.15625 -0.125q-0.03125 -0.0625 -0.03125 -0.15625l0 -10.546875q0 -0.09375 0.03125 -0.15625q0.03125 -0.0625 0.140625 -0.109375q0.109375 -0.0625 0.265625 -0.078125q0.171875 -0.015625 0.4375 -0.015625q0.265625 0 0.421875 0.015625q0.171875 0.015625 0.265625 0.078125q0.09375 0.046875 0.140625 0.109375q0.046875 0.0625 0.046875 0.15625l0 1.390625q0.890625 -0.984375 1.765625 -1.453125q0.890625 -0.46875 1.796875 -0.46875q1.046875 0 1.765625 0.359375q0.71875 0.359375 1.15625 0.96875q0.453125 0.59375 0.640625 1.390625q0.203125 0.796875 0.203125 1.921875l0 6.4375z" fill-rule="nonzero"/><path fill="#c9daf8" d="m255.6142 131.1214l107.33859 0l0 51.842514l-107.33859 0z" fill-rule="evenodd"/><path stroke="#595959" stroke-width="1.0" stroke-linejoin="round" stroke-linecap="butt" d="m255.6142 131.1214l107.33859 0l0 51.842514l-107.33859 0z" fill-rule="evenodd"/><path fill="#000000" d="m291.47293 165.27016q0 0.09375 -0.046875 0.171875q-0.046875 0.0625 -0.171875 0.109375q-0.109375 0.046875 -0.296875 0.078125q-0.171875 0.03125 -0.46875 0.03125q-0.265625 0 -0.46875 -0.03125q-0.1875 -0.03125 -0.296875 -0.078125q-0.109375 -0.046875 -0.15625 -0.109375q-0.046875 -0.078125 -0.046875 -0.171875l0 -13.203125l-0.015625 0l-5.40625 13.265625q-0.03125 0.078125 -0.109375 0.140625q-0.0625 0.0625 -0.1875 0.109375q-0.109375 0.03125 -0.28125 0.046875q-0.171875 0.03125 -0.40625 0.03125q-0.25 0 -0.421875 -0.03125q-0.171875 -0.015625 -0.296875 -0.0625q-0.109375 -0.046875 -0.1875 -0.09375q-0.0625 -0.0625 -0.078125 -0.140625l-5.171875 -13.265625l-0.015625 0l0 13.203125q0 0.09375 -0.046875 0.171875q-0.046875 0.0625 -0.171875 0.109375q-0.109375 0.046875 -0.296875 0.078125q-0.1875 0.03125 -0.46875 0.03125q-0.28125 0 -0.46875 -0.03125q-0.1875 -0.03125 -0.3125 -0.078125q-0.109375 -0.046875 -0.15625 -0.109375q-0.03125 -0.078125 -0.03125 -0.171875l0 -13.9375q0 -0.5 0.25 -0.703125q0.265625 -0.21875 0.578125 -0.21875l1.21875 0q0.375 0 0.65625 0.078125q0.28125 0.0625 0.484375 0.21875q0.21875 0.15625 0.359375 0.390625q0.140625 0.234375 0.25 0.546875l4.390625 10.984375l0.0625 0l4.578125 -10.953125q0.125 -0.34375 0.265625 -0.59375q0.15625 -0.25 0.34375 -0.390625q0.1875 -0.140625 0.40625 -0.203125q0.21875 -0.078125 0.515625 -0.078125l1.28125 0q0.171875 0 0.328125 0.0625q0.15625 0.046875 0.265625 0.15625q0.109375 0.109375 0.171875 0.28125q0.078125 0.171875 0.078125 0.421875l0 13.9375zm13.628906 -5.375q0 1.296875 -0.34375 2.375q-0.34375 1.078125 -1.015625 1.875q-0.671875 0.78125 -1.6875 1.21875q-1.015625 0.4375 -2.34375 0.4375q-1.3125 0 -2.28125 -0.375q-0.953125 -0.390625 -1.609375 -1.125q-0.640625 -0.75 -0.953125 -1.796875q-0.3125 -1.0625 -0.3125 -2.390625q0 -1.296875 0.328125 -2.375q0.328125 -1.09375 1.0 -1.875q0.6875 -0.78125 1.6875 -1.21875q1.015625 -0.4375 2.359375 -0.4375q1.296875 0 2.265625 0.390625q0.96875 0.390625 1.609375 1.125q0.640625 0.734375 0.96875 1.796875q0.328125 1.046875 0.328125 2.375zm-2.046875 0.125q0 -0.84375 -0.15625 -1.609375q-0.15625 -0.765625 -0.53125 -1.328125q-0.359375 -0.578125 -0.984375 -0.90625q-0.609375 -0.34375 -1.53125 -0.34375q-0.859375 0 -1.484375 0.3125q-0.609375 0.296875 -1.015625 0.859375q-0.390625 0.546875 -0.59375 1.3125q-0.1875 0.765625 -0.1875 1.65625q0 0.875 0.15625 1.640625q0.171875 0.75 0.53125 1.328125q0.375 0.5625 0.984375 0.90625q0.625 0.328125 1.5625 0.328125q0.84375 0 1.453125 -0.296875q0.625 -0.3125 1.015625 -0.859375q0.40625 -0.5625 0.59375 -1.3125q0.1875 -0.765625 0.1875 -1.6875zm13.921875 5.265625q0 0.09375 -0.046875 0.171875q-0.03125 0.0625 -0.140625 0.109375q-0.09375 0.046875 -0.265625 0.0625q-0.15625 0.03125 -0.390625 0.03125q-0.25 0 -0.421875 -0.03125q-0.15625 -0.015625 -0.265625 -0.0625q-0.09375 -0.046875 -0.140625 -0.109375q-0.046875 -0.078125 -0.046875 -0.171875l0 -1.390625q-0.828125 0.90625 -1.734375 1.40625q-0.890625 0.5 -1.953125 0.5q-1.171875 0 -2.0 -0.453125q-0.8125 -0.453125 -1.328125 -1.21875q-0.5 -0.765625 -0.734375 -1.796875q-0.234375 -1.046875 -0.234375 -2.1875q0 -1.359375 0.296875 -2.453125q0.296875 -1.09375 0.859375 -1.859375q0.578125 -0.78125 1.421875 -1.203125q0.859375 -0.421875 1.96875 -0.421875q0.921875 0 1.6875 0.40625q0.78125 0.40625 1.53125 1.1875l0 -6.125q0 -0.078125 0.03125 -0.15625q0.046875 -0.078125 0.15625 -0.109375q0.125 -0.046875 0.296875 -0.078125q0.1875 -0.03125 0.46875 -0.03125q0.296875 0 0.484375 0.03125q0.1875 0.03125 0.28125 0.078125q0.109375 0.03125 0.15625 0.109375q0.0625 0.078125 0.0625 0.15625l0 15.609375zm-1.9375 -7.421875q-0.796875 -0.96875 -1.53125 -1.46875q-0.71875 -0.515625 -1.515625 -0.515625q-0.75 0 -1.265625 0.359375q-0.515625 0.34375 -0.84375 0.921875q-0.3125 0.5625 -0.46875 1.296875q-0.140625 0.71875 -0.140625 1.46875q0 0.796875 0.125 1.5625q0.125 0.765625 0.421875 1.359375q0.3125 0.59375 0.8125 0.953125q0.515625 0.34375 1.265625 0.34375q0.390625 0 0.75 -0.09375q0.359375 -0.109375 0.734375 -0.359375q0.375 -0.25 0.78125 -0.640625q0.40625 -0.390625 0.875 -0.96875l0 -4.21875zm14.515625 1.6875q0 0.46875 -0.234375 0.65625q-0.21875 0.1875 -0.515625 0.1875l-6.921875 0q0 0.890625 0.171875 1.59375q0.1875 0.703125 0.59375 1.203125q0.40625 0.5 1.0625 0.78125q0.65625 0.265625 1.609375 0.265625q0.75 0 1.328125 -0.125q0.59375 -0.125 1.015625 -0.28125q0.4375 -0.15625 0.703125 -0.265625q0.28125 -0.125 0.421875 -0.125q0.078125 0 0.140625 0.046875q0.078125 0.03125 0.109375 0.109375q0.03125 0.078125 0.046875 0.234375q0.015625 0.140625 0.015625 0.359375q0 0.140625 -0.015625 0.265625q0 0.109375 -0.015625 0.203125q-0.015625 0.078125 -0.0625 0.15625q-0.046875 0.0625 -0.109375 0.125q-0.0625 0.0625 -0.375 0.21875q-0.3125 0.140625 -0.828125 0.28125q-0.5 0.140625 -1.171875 0.25q-0.65625 0.109375 -1.40625 0.109375q-1.296875 0 -2.28125 -0.359375q-0.96875 -0.359375 -1.640625 -1.078125q-0.671875 -0.71875 -1.015625 -1.796875q-0.328125 -1.078125 -0.328125 -2.5q0 -1.359375 0.34375 -2.4375q0.359375 -1.09375 1.015625 -1.84375q0.671875 -0.765625 1.609375 -1.171875q0.9375 -0.40625 2.09375 -0.40625q1.234375 0 2.109375 0.40625q0.875 0.390625 1.4375 1.078125q0.5625 0.671875 0.828125 1.578125q0.265625 0.90625 0.265625 1.9375l0 0.34375zm-1.953125 -0.5625q0.046875 -1.53125 -0.671875 -2.390625q-0.703125 -0.875 -2.09375 -0.875q-0.71875 0 -1.265625 0.28125q-0.53125 0.265625 -0.90625 0.71875q-0.359375 0.4375 -0.5625 1.03125q-0.1875 0.578125 -0.21875 1.234375l5.71875 0zm6.8320312 6.296875q0 0.09375 -0.046875 0.15625q-0.046875 0.0625 -0.15625 0.125q-0.109375 0.046875 -0.296875 0.0625q-0.1875 0.03125 -0.484375 0.03125q-0.28125 0 -0.46875 -0.03125q-0.1875 -0.015625 -0.296875 -0.0625q-0.109375 -0.0625 -0.15625 -0.125q-0.03125 -0.0625 -0.03125 -0.15625l0 -15.65625q0 -0.09375 0.03125 -0.15625q0.046875 -0.078125 0.15625 -0.125q0.109375 -0.046875 0.296875 -0.0625q0.1875 -0.03125 0.46875 -0.03125q0.296875 0 0.484375 0.03125q0.1875 0.015625 0.296875 0.0625q0.109375 0.046875 0.15625 0.125q0.046875 0.0625 0.046875 0.15625l0 15.65625zm10.1953125 -2.875q0 0.8125 -0.3125 1.453125q-0.296875 0.625 -0.84375 1.0625q-0.546875 0.4375 -1.3125 0.65625q-0.765625 0.21875 -1.671875 0.21875q-0.5625 0 -1.078125 -0.09375q-0.5 -0.078125 -0.90625 -0.203125q-0.40625 -0.140625 -0.6875 -0.28125q-0.28125 -0.15625 -0.421875 -0.265625q-0.125 -0.125 -0.1875 -0.328125q-0.046875 -0.21875 -0.046875 -0.578125q0 -0.234375 0.015625 -0.375q0.03125 -0.15625 0.0625 -0.25q0.03125 -0.09375 0.09375 -0.125q0.078125 -0.046875 0.15625 -0.046875q0.125 0 0.375 0.15625q0.25 0.15625 0.625 0.34375q0.375 0.1875 0.875 0.34375q0.5 0.15625 1.15625 0.15625q0.5 0 0.890625 -0.09375q0.40625 -0.109375 0.6875 -0.3125q0.296875 -0.21875 0.453125 -0.53125q0.15625 -0.3125 0.15625 -0.75q0 -0.4375 -0.234375 -0.734375q-0.21875 -0.3125 -0.59375 -0.546875q-0.375 -0.234375 -0.84375 -0.421875q-0.46875 -0.1875 -0.96875 -0.375q-0.5 -0.203125 -0.96875 -0.453125q-0.46875 -0.25 -0.84375 -0.609375q-0.375 -0.375 -0.609375 -0.875q-0.234375 -0.5 -0.234375 -1.203125q0 -0.625 0.234375 -1.1875q0.25 -0.578125 0.734375 -1.0q0.484375 -0.4375 1.203125 -0.6875q0.71875 -0.265625 1.671875 -0.265625q0.421875 0 0.84375 0.078125q0.421875 0.0625 0.765625 0.171875q0.34375 0.109375 0.578125 0.234375q0.25 0.125 0.359375 0.21875q0.125 0.09375 0.171875 0.171875q0.046875 0.0625 0.0625 0.15625q0.015625 0.078125 0.03125 0.203125q0.015625 0.125 0.015625 0.3125q0 0.203125 -0.015625 0.359375q-0.015625 0.140625 -0.0625 0.234375q-0.03125 0.09375 -0.09375 0.140625q-0.0625 0.03125 -0.125 0.03125q-0.109375 0 -0.3125 -0.125q-0.203125 -0.125 -0.515625 -0.265625q-0.3125 -0.15625 -0.75 -0.28125q-0.421875 -0.140625 -0.96875 -0.140625q-0.5 0 -0.875 0.125q-0.375 0.109375 -0.609375 0.3125q-0.234375 0.203125 -0.359375 0.484375q-0.125 0.28125 -0.125 0.609375q0 0.453125 0.234375 0.765625q0.234375 0.3125 0.609375 0.546875q0.375 0.234375 0.84375 0.421875q0.484375 0.1875 0.984375 0.390625q0.5 0.1875 0.984375 0.4375q0.484375 0.25 0.859375 0.609375q0.375 0.34375 0.609375 0.84375q0.234375 0.484375 0.234375 1.15625z" fill-rule="nonzero"/><path fill="#c9daf8" d="m381.98428 131.1214l107.33859 0l0 51.842514l-107.33859 0z" fill-rule="evenodd"/><path stroke="#595959" stroke-width="1.0" stroke-linejoin="round" stroke-linecap="butt" d="m381.98428 131.1214l107.33859 0l0 51.842514l-107.33859 0z" fill-rule="evenodd"/><path fill="#000000" d="m417.70435 161.2389q0 0.703125 -0.1875 1.3125q-0.171875 0.609375 -0.5 1.09375q-0.328125 0.46875 -0.796875 0.84375q-0.46875 0.359375 -1.046875 0.609375q-0.578125 0.234375 -1.25 0.359375q-0.65625 0.125 -1.5 0.125l-3.96875 0q-0.265625 0 -0.515625 -0.171875q-0.234375 -0.1875 -0.234375 -0.65625l0 -13.515625q0 -0.453125 0.234375 -0.640625q0.25 -0.1875 0.515625 -0.1875l3.453125 0q1.359375 0 2.21875 0.265625q0.875 0.25 1.453125 0.75q0.578125 0.484375 0.859375 1.203125q0.296875 0.71875 0.296875 1.625q0 0.53125 -0.125 1.03125q-0.125 0.484375 -0.375 0.90625q-0.25 0.40625 -0.640625 0.734375q-0.375 0.328125 -0.875 0.546875q0.625 0.109375 1.15625 0.421875q0.546875 0.3125 0.953125 0.796875q0.40625 0.484375 0.640625 1.125q0.234375 0.640625 0.234375 1.421875zm-3.03125 -6.796875q0 -0.546875 -0.15625 -0.984375q-0.15625 -0.453125 -0.484375 -0.765625q-0.328125 -0.3125 -0.859375 -0.46875q-0.515625 -0.171875 -1.390625 -0.171875l-2.078125 0l0 4.921875l2.296875 0q0.78125 0 1.25 -0.203125q0.484375 -0.21875 0.796875 -0.5625q0.328125 -0.34375 0.46875 -0.796875q0.15625 -0.46875 0.15625 -0.96875zm0.90625 6.90625q0 -0.671875 -0.21875 -1.1875q-0.21875 -0.515625 -0.640625 -0.859375q-0.40625 -0.359375 -1.03125 -0.546875q-0.625 -0.1875 -1.578125 -0.1875l-2.40625 0l0 5.34375l2.921875 0q0.6875 0 1.203125 -0.15625q0.515625 -0.171875 0.90625 -0.484375q0.40625 -0.328125 0.625 -0.796875q0.21875 -0.484375 0.21875 -1.125zm11.1171875 -5.921875q0 0.265625 -0.015625 0.4375q0 0.171875 -0.046875 0.28125q-0.03125 0.09375 -0.078125 0.15625q-0.046875 0.046875 -0.140625 0.046875q-0.09375 0 -0.234375 -0.046875q-0.140625 -0.0625 -0.3125 -0.109375q-0.15625 -0.0625 -0.375 -0.109375q-0.203125 -0.046875 -0.453125 -0.046875q-0.296875 0 -0.578125 0.125q-0.28125 0.109375 -0.59375 0.390625q-0.3125 0.265625 -0.65625 0.71875q-0.328125 0.4375 -0.734375 1.078125l0 6.9375q0 0.09375 -0.046875 0.15625q-0.046875 0.0625 -0.15625 0.125q-0.109375 0.046875 -0.296875 0.0625q-0.1875 0.03125 -0.484375 0.03125q-0.28125 0 -0.46875 -0.03125q-0.1875 -0.015625 -0.296875 -0.0625q-0.109375 -0.0625 -0.15625 -0.125q-0.03125 -0.0625 -0.03125 -0.15625l0 -10.546875q0 -0.09375 0.03125 -0.15625q0.03125 -0.0625 0.140625 -0.109375q0.109375 -0.0625 0.265625 -0.078125q0.171875 -0.015625 0.4375 -0.015625q0.265625 0 0.421875 0.015625q0.171875 0.015625 0.265625 0.078125q0.09375 0.046875 0.140625 0.109375q0.046875 0.0625 0.046875 0.15625l0 1.53125q0.421875 -0.625 0.796875 -1.015625q0.390625 -0.40625 0.734375 -0.625q0.34375 -0.234375 0.671875 -0.328125q0.328125 -0.09375 0.671875 -0.09375q0.15625 0 0.34375 0.03125q0.203125 0.015625 0.40625 0.0625q0.21875 0.046875 0.375 0.109375q0.171875 0.046875 0.234375 0.109375q0.078125 0.0625 0.09375 0.109375q0.03125 0.046875 0.046875 0.140625q0.03125 0.078125 0.03125 0.234375q0 0.15625 0 0.421875zm9.65625 9.875q0 0.140625 -0.09375 0.21875q-0.09375 0.0625 -0.265625 0.09375q-0.15625 0.046875 -0.46875 0.046875q-0.296875 0 -0.484375 -0.046875q-0.1875 -0.03125 -0.265625 -0.09375q-0.078125 -0.078125 -0.078125 -0.21875l0 -1.0625q-0.6875 0.75 -1.546875 1.15625q-0.84375 0.40625 -1.796875 0.40625q-0.828125 0 -1.5 -0.21875q-0.671875 -0.21875 -1.15625 -0.625q-0.46875 -0.40625 -0.734375 -1.0q-0.265625 -0.609375 -0.265625 -1.359375q0 -0.890625 0.359375 -1.546875q0.375 -0.65625 1.046875 -1.09375q0.6875 -0.4375 1.671875 -0.65625q0.984375 -0.21875 2.203125 -0.21875l1.453125 0l0 -0.8125q0 -0.609375 -0.125 -1.078125q-0.125 -0.46875 -0.421875 -0.78125q-0.28125 -0.3125 -0.734375 -0.46875q-0.453125 -0.15625 -1.125 -0.15625q-0.71875 0 -1.296875 0.171875q-0.5625 0.171875 -0.984375 0.375q-0.421875 0.203125 -0.71875 0.375q-0.28125 0.171875 -0.421875 0.171875q-0.09375 0 -0.171875 -0.046875q-0.0625 -0.046875 -0.125 -0.140625q-0.046875 -0.09375 -0.078125 -0.234375q-0.015625 -0.15625 -0.015625 -0.328125q0 -0.296875 0.03125 -0.46875q0.046875 -0.171875 0.203125 -0.3125q0.171875 -0.15625 0.546875 -0.359375q0.390625 -0.21875 0.890625 -0.375q0.515625 -0.171875 1.109375 -0.28125q0.59375 -0.125 1.203125 -0.125q1.140625 0 1.9375 0.265625q0.796875 0.25 1.28125 0.75q0.5 0.5 0.71875 1.25q0.21875 0.734375 0.21875 1.71875l0 7.109375zm-1.921875 -4.8125l-1.640625 0q-0.796875 0 -1.390625 0.140625q-0.578125 0.125 -0.96875 0.390625q-0.390625 0.265625 -0.578125 0.640625q-0.171875 0.359375 -0.171875 0.84375q0 0.8125 0.515625 1.296875q0.53125 0.484375 1.46875 0.484375q0.75 0 1.40625 -0.375q0.65625 -0.390625 1.359375 -1.1875l0 -2.234375zm7.4179688 4.796875q0 0.09375 -0.046875 0.15625q-0.046875 0.0625 -0.15625 0.125q-0.109375 0.046875 -0.296875 0.0625q-0.1875 0.03125 -0.484375 0.03125q-0.28125 0 -0.46875 -0.03125q-0.1875 -0.015625 -0.296875 -0.0625q-0.109375 -0.0625 -0.15625 -0.125q-0.03125 -0.0625 -0.03125 -0.15625l0 -10.546875q0 -0.078125 0.03125 -0.140625q0.046875 -0.078125 0.15625 -0.125q0.109375 -0.046875 0.296875 -0.0625q0.1875 -0.03125 0.46875 -0.03125q0.296875 0 0.484375 0.03125q0.1875 0.015625 0.296875 0.0625q0.109375 0.046875 0.15625 0.125q0.046875 0.0625 0.046875 0.140625l0 10.546875zm0.21875 -14.109375q0 0.6875 -0.265625 0.9375q-0.25 0.234375 -0.9375 0.234375q-0.6875 0 -0.9375 -0.234375q-0.25 -0.25 -0.25 -0.90625q0 -0.6875 0.25 -0.921875q0.265625 -0.25 0.953125 -0.25q0.6875 0 0.9375 0.234375q0.25 0.234375 0.25 0.90625zm12.4296875 14.109375q0 0.09375 -0.046875 0.15625q-0.046875 0.0625 -0.15625 0.125q-0.09375 0.046875 -0.28125 0.0625q-0.1875 0.03125 -0.46875 0.03125q-0.296875 0 -0.484375 -0.03125q-0.1875 -0.015625 -0.296875 -0.0625q-0.109375 -0.0625 -0.15625 -0.125q-0.046875 -0.0625 -0.046875 -0.15625l0 -6.171875q0 -0.90625 -0.140625 -1.453125q-0.140625 -0.546875 -0.40625 -0.9375q-0.265625 -0.40625 -0.703125 -0.609375q-0.421875 -0.21875 -0.984375 -0.21875q-0.71875 0 -1.453125 0.515625q-0.71875 0.515625 -1.515625 1.5l0 7.375q0 0.09375 -0.046875 0.15625q-0.046875 0.0625 -0.15625 0.125q-0.109375 0.046875 -0.296875 0.0625q-0.1875 0.03125 -0.484375 0.03125q-0.28125 0 -0.46875 -0.03125q-0.1875 -0.015625 -0.296875 -0.0625q-0.109375 -0.0625 -0.15625 -0.125q-0.03125 -0.0625 -0.03125 -0.15625l0 -10.546875q0 -0.09375 0.03125 -0.15625q0.03125 -0.0625 0.140625 -0.109375q0.109375 -0.0625 0.265625 -0.078125q0.171875 -0.015625 0.4375 -0.015625q0.265625 0 0.421875 0.015625q0.171875 0.015625 0.265625 0.078125q0.09375 0.046875 0.140625 0.109375q0.046875 0.0625 0.046875 0.15625l0 1.390625q0.890625 -0.984375 1.765625 -1.453125q0.890625 -0.46875 1.796875 -0.46875q1.046875 0 1.765625 0.359375q0.71875 0.359375 1.15625 0.96875q0.453125 0.59375 0.640625 1.390625q0.203125 0.796875 0.203125 1.921875l0 6.4375zm10.15625 -2.875q0 0.8125 -0.3125 1.453125q-0.296875 0.625 -0.84375 1.0625q-0.546875 0.4375 -1.3125 0.65625q-0.765625 0.21875 -1.671875 0.21875q-0.5625 0 -1.078125 -0.09375q-0.5 -0.078125 -0.90625 -0.203125q-0.40625 -0.140625 -0.6875 -0.28125q-0.28125 -0.15625 -0.421875 -0.265625q-0.125 -0.125 -0.1875 -0.328125q-0.046875 -0.21875 -0.046875 -0.578125q0 -0.234375 0.015625 -0.375q0.03125 -0.15625 0.0625 -0.25q0.03125 -0.09375 0.09375 -0.125q0.078125 -0.046875 0.15625 -0.046875q0.125 0 0.375 0.15625q0.25 0.15625 0.625 0.34375q0.375 0.1875 0.875 0.34375q0.5 0.15625 1.15625 0.15625q0.5 0 0.890625 -0.09375q0.40625 -0.109375 0.6875 -0.3125q0.296875 -0.21875 0.453125 -0.53125q0.15625 -0.3125 0.15625 -0.75q0 -0.4375 -0.234375 -0.734375q-0.21875 -0.3125 -0.59375 -0.546875q-0.375 -0.234375 -0.84375 -0.421875q-0.46875 -0.1875 -0.96875 -0.375q-0.5 -0.203125 -0.96875 -0.453125q-0.46875 -0.25 -0.84375 -0.609375q-0.375 -0.375 -0.609375 -0.875q-0.234375 -0.5 -0.234375 -1.203125q0 -0.625 0.234375 -1.1875q0.25 -0.578125 0.734375 -1.0q0.484375 -0.4375 1.203125 -0.6875q0.71875 -0.265625 1.671875 -0.265625q0.421875 0 0.84375 0.078125q0.421875 0.0625 0.765625 0.171875q0.34375 0.109375 0.578125 0.234375q0.25 0.125 0.359375 0.21875q0.125 0.09375 0.171875 0.171875q0.046875 0.0625 0.0625 0.15625q0.015625 0.078125 0.03125 0.203125q0.015625 0.125 0.015625 0.3125q0 0.203125 -0.015625 0.359375q-0.015625 0.140625 -0.0625 0.234375q-0.03125 0.09375 -0.09375 0.140625q-0.0625 0.03125 -0.125 0.03125q-0.109375 0 -0.3125 -0.125q-0.203125 -0.125 -0.515625 -0.265625q-0.3125 -0.15625 -0.75 -0.28125q-0.421875 -0.140625 -0.96875 -0.140625q-0.5 0 -0.875 0.125q-0.375 0.109375 -0.609375 0.3125q-0.234375 0.203125 -0.359375 0.484375q-0.125 0.28125 -0.125 0.609375q0 0.453125 0.234375 0.765625q0.234375 0.3125 0.609375 0.546875q0.375 0.234375 0.84375 0.421875q0.484375 0.1875 0.984375 0.390625q0.5 0.1875 0.984375 0.4375q0.484375 0.25 0.859375 0.609375q0.375 0.34375 0.609375 0.84375q0.234375 0.484375 0.234375 1.15625z" fill-rule="nonzero"/><path fill="#000000" fill-opacity="0.0" d="m56.543312 131.1214c0 -10.2909775 31.590553 -20.589828 63.1811 -20.581955c31.590546 0.007873535 63.181107 10.322472 63.181107 20.644943" fill-rule="evenodd"/><path stroke="#595959" stroke-width="1.0" stroke-linejoin="round" stroke-linecap="butt" d="m56.543312 131.12138c0 -10.290962 31.590546 -20.589813 63.1811 -20.58194c15.795273 0.0039367676 31.590546 2.584549 43.43701 6.4544983c5.923218 1.934967 10.859253 4.192276 14.314468 6.610985c1.7276001 1.2093582 3.0850067 2.4590683 4.0105133 3.7290115c0.11569214 0.15875244 0.2246399 0.31781006 0.32669067 0.47714996l0.06436157 0.10404205" fill-rule="evenodd"/><path fill="#595959" stroke="#595959" stroke-width="1.0" stroke-linecap="butt" d="m181.87746 127.91513l-1.4101562 -0.7354355l1.9996643 2.610115l0.1459198 -3.2848282z" fill-rule="evenodd"/><path fill="#000000" fill-opacity="0.0" d="m56.543312 131.1214c0 -14.347412 63.188972 -28.70269 126.37795 -28.694817c63.18898 0.007873535 126.37796 14.378906 126.37796 28.757805" fill-rule="evenodd"/><path stroke="#595959" stroke-width="1.0" stroke-linejoin="round" stroke-linecap="butt" d="m56.543312 131.12138c0 -14.347389 63.188972 -28.702675 126.37795 -28.694801c31.594482 0.0039367676 63.188965 3.5986633 86.88483 8.989769c11.847931 2.695549 21.721222 5.8402023 28.632507 9.209633c3.455658 1.6847229 6.170807 3.4256363 8.022064 5.1947174c0.46279907 0.44226837 0.87161255 0.88629913 1.2244873 1.3316498c0.17645264 0.22267914 0.33892822 0.44568634 0.48718262 0.6689682l0.06729126 0.103897095" fill-rule="evenodd"/><path fill="#595959" stroke="#595959" stroke-width="1.0" stroke-linecap="butt" d="m308.23962 127.92522l-1.4171753 -0.7217865l2.0247803 2.590683l0.11416626 -3.2860794z" fill-rule="evenodd"/><path fill="#000000" fill-opacity="0.0" d="m56.543312 131.1214c0 -18.457 94.77953 -36.921867 189.55905 -36.913994c94.779526 0.007873535 189.55904 18.488487 189.55904 36.976982" fill-rule="evenodd"/><path stroke="#595959" stroke-width="1.0" stroke-linejoin="round" stroke-linecap="butt" d="m56.543312 131.12138c0 -18.456985 94.77952 -36.92186 189.55905 -36.913986c47.38977 0.0039367676 94.77954 4.6260605 130.32187 11.558266c17.771149 3.466095 32.580444 7.50972 42.94696 11.842346c5.1832886 2.1663132 9.255829 4.4048767 12.032562 6.6796265c1.3883667 1.1373749 2.4527893 2.2837906 3.170105 3.4347534l0.10757446 0.17801666" fill-rule="evenodd"/><path fill="#595959" stroke="#595959" stroke-width="1.0" stroke-linecap="butt" d="m434.68143 127.900406l-1.399231 -0.7560425l1.9611816 2.6391602l0.1940918 -3.2823257z" fill-rule="evenodd"/></g></svg>